<?xml version="1.0" standalone="no"?>
<!DOCTYPE svg PUBLIC "-//W3C//DTD SVG 1.1//EN" "http://www.w3.org/Graphics/SVG/1.1/DTD/svg11.dtd" >
<svg xmlns="http://www.w3.org/2000/svg">
<metadata>
<json>
{
	"fontFamily": "Material-Design-Iconic-Font",
	"majorVersion": 1,
	"minorVersion": 0,
	"fontURL": "http://zavoloklom.github.io/material-design-iconic-font/",
	"presentation": "Material Design Iconic Font is a full suite of material design icons (created and maintained by Google) for easy scalable vector graphics on websites.\nFont generated by IcoMoon.",
	"copyright": "CSS: Kupletsky Sergey, Icons: Google",
	"designerURL": "http://zavoloklom.github.io/",
	"license": "Attribution-ShareAlike 4.0 International license",
	"licenseURL": "http://creativecommons.org/licenses/by-sa/4.0/",
	"version": "Version 1.0",
	"fontId": "Material-Design-Iconic-Font",
	"psName": "Material-Design-Iconic-Font",
	"subFamily": "Regular",
	"fullName": "Material-Design-Iconic-Font"
}
</json>
</metadata>
<defs>
<font id="Material-Design-Iconic-Font" horiz-adv-x="1024">
<font-face units-per-em="1024" ascent="960" descent="-64" />
<missing-glyph horiz-adv-x="1024" />
<glyph unicode="&#x20;" d="" horiz-adv-x="512" />
<glyph unicode="&#xf000;" d="M320.64 43.307c-139.307 66.133-239.36 201.6-254.507 362.027h-64c21.76-262.827 241.493-469.333 509.867-469.333 9.6 0 18.773 0.853 28.16 1.493l-162.56 162.773-56.96-56.96zM358.613 321.707c-8.107 0-15.573 1.067-22.4 3.627-6.613 2.347-12.373 5.76-17.067 10.027s-8.32 9.6-10.88 15.573c-2.56 6.187-3.84 12.8-3.84 20.053h-55.467c0-15.36 2.987-28.8 8.96-40.533s13.867-21.547 23.893-29.227c10.027-7.893 21.547-13.653 34.773-17.707 13.227-4.267 26.88-6.187 41.387-6.187 15.787 0 30.507 2.133 44.16 6.4s25.387 10.667 35.413 18.987 17.707 18.56 23.467 30.72c5.547 12.16 8.533 26.027 8.533 41.6 0 8.32-1.067 16.213-2.987 23.893-2.133 7.68-5.333 14.933-9.6 21.76-4.48 6.827-10.24 12.8-17.28 18.347-7.040 5.333-15.787 9.813-25.813 13.44 8.533 3.84 16 8.533 22.4 14.080s11.733 11.52 16 17.707c4.267 6.4 7.467 12.8 9.6 19.627s3.2 13.653 3.2 20.267c0 15.573-2.56 29.227-7.68 40.96s-12.373 21.547-21.76 29.44c-9.387 7.893-20.48 13.867-33.707 17.92-13.653 4.267-28.16 6.187-43.947 6.187-15.36 0-29.653-2.347-42.667-6.827s-24.107-10.88-33.493-18.987c-9.387-8.107-16.64-17.707-21.973-28.8s-7.893-23.253-7.893-36.267h55.467c0 7.253 1.28 13.653 3.84 19.2 2.56 5.76 6.187 10.667 10.667 14.507 4.48 4.053 10.027 7.253 16.213 9.387s13.013 3.413 20.267 3.413c17.067 0 29.653-4.48 37.973-13.227s12.373-21.12 12.373-36.907c0-7.68-1.067-14.507-3.413-20.693s-5.76-11.52-10.453-16c-4.693-4.48-10.667-7.893-17.493-10.453-7.040-2.56-15.36-3.84-24.747-3.84h-32.853v-43.733h32.853c9.387 0 17.92-1.067 25.387-3.2s13.867-5.333 19.2-10.027c5.333-4.48 9.387-10.24 12.373-17.067 2.773-6.827 4.267-14.933 4.267-24.32 0-17.28-4.907-30.507-14.933-39.68-9.6-8.96-23.040-13.44-40.32-13.44zM723.84 574.507c-13.44 14.080-29.653 24.96-48.427 32.64-18.987 7.68-39.68 11.52-62.507 11.52h-100.907v-341.333h97.92c23.68 0 45.013 3.84 64.427 11.52s35.84 18.56 49.493 32.64c13.653 14.080 24.32 31.147 31.573 50.987 7.467 19.84 11.093 42.24 11.093 66.987v16.853c0 24.747-3.84 46.933-11.307 66.987s-17.92 37.12-31.36 51.2zM706.987 439.253c0-17.707-1.92-33.92-6.187-48-4.053-14.293-10.027-26.24-18.133-36.053s-18.133-17.28-30.293-22.613c-12.16-5.12-26.24-7.893-42.453-7.893h-38.613v246.187h41.6c30.72 0 53.973-9.813 70.187-29.227 16-19.627 24.107-47.787 24.107-84.907v-17.493zM512 960c-9.6 0-18.773-0.853-28.16-1.493l162.56-162.773 56.747 56.747c139.52-65.92 239.573-201.387 254.72-361.813h64c-21.76 262.827-241.493 469.333-509.867 469.333z" />
<glyph unicode="&#xf001;" d="M512 874.667c47.147 0 85.333-38.187 85.333-85.333s-38.187-85.333-85.333-85.333-85.333 38.187-85.333 85.333 38.187 85.333 85.333 85.333zM896 576h-256v-554.667h-85.333v256h-85.333v-256h-85.333v554.667h-256v85.333h768v-85.333z" />
<glyph unicode="&#xf002;" d="M170.667 533.333v-298.667h128v298.667h-128zM426.667 533.333v-298.667h128v298.667h-128zM85.333 21.333h810.667v128h-810.667v-128zM682.667 533.333v-298.667h128v298.667h-128zM490.667 917.333l-405.333-213.333v-85.333h810.667v85.333l-405.333 213.333z" />
<glyph unicode="&#xf003;" d="M896 192v-42.667c0-47.147-38.187-85.333-85.333-85.333h-597.333c-47.147 0-85.333 38.187-85.333 85.333v597.333c0 47.147 38.187 85.333 85.333 85.333h597.333c47.147 0 85.333-38.187 85.333-85.333v-42.667h-384c-47.147 0-85.333-38.187-85.333-85.333v-341.333c0-47.147 38.187-85.333 85.333-85.333h384zM512 277.333h426.667v341.333h-426.667v-341.333zM682.667 384c-35.413 0-64 28.587-64 64s28.587 64 64 64 64-28.587 64-64-28.587-64-64-64z" />
<glyph unicode="&#xf004;" d="M128 746.667v-597.333c0-47.147 38.187-85.333 85.333-85.333h597.333c47.147 0 85.333 38.187 85.333 85.333v597.333c0 47.147-38.187 85.333-85.333 85.333h-597.333c-47.147 0-85.333-38.187-85.333-85.333zM640 576c0-70.827-57.387-128-128-128s-128 57.173-128 128c0 70.613 57.387 128 128 128s128-57.387 128-128zM256 234.667c0 85.333 170.667 132.267 256 132.267s256-46.933 256-132.267v-42.667h-512v42.667z" />
<glyph unicode="&#xf005;" d="M704 448c58.88 0 106.24 47.787 106.24 106.667s-47.36 106.667-106.24 106.667c-58.88 0-106.667-47.787-106.667-106.667s47.787-106.667 106.667-106.667zM384 490.667c70.613 0 127.573 57.387 127.573 128s-56.96 128-127.573 128c-70.613 0-128-57.387-128-128s57.387-128 128-128zM704 362.667c-78.293 0-234.667-39.253-234.667-117.333v-96h469.333v96c0 78.080-156.373 117.333-234.667 117.333zM384 405.333c-99.627 0-298.667-49.92-298.667-149.333v-106.667h298.667v96c0 36.267 14.293 99.627 101.12 148.053-37.12 7.893-73.173 11.947-101.12 11.947z" />
<glyph unicode="&#xf006;" d="M512 874.667c-235.733 0-426.667-190.933-426.667-426.667s190.933-426.667 426.667-426.667 426.667 190.933 426.667 426.667-190.933 426.667-426.667 426.667zM512 746.667c70.613 0 128-57.387 128-128 0-70.827-57.387-128-128-128s-128 57.173-128 128c0 70.613 57.387 128 128 128zM512 140.8c-106.88 0-200.747 54.613-256 137.387 1.067 84.693 170.88 131.413 256 131.413s254.72-46.72 256-131.413c-55.253-82.773-149.12-137.387-256-137.387z" />
<glyph unicode="&#xf007;" d="M469.333 576h85.333v128h128v85.333h-128v128h-85.333v-128h-128v-85.333h128v-128zM298.667 192c-47.147 0-84.907-38.187-84.907-85.333s37.76-85.333 84.907-85.333 85.333 38.187 85.333 85.333-38.187 85.333-85.333 85.333zM725.333 192c-47.147 0-84.907-38.187-84.907-85.333s37.76-85.333 84.907-85.333 85.333 38.187 85.333 85.333-38.187 85.333-85.333 85.333zM306.133 330.667c0 1.92 0.427 3.627 1.28 5.12l38.4 69.547h317.867c32 0 59.947 17.707 74.667 43.947l164.693 299.093-74.667 40.96h-0.213l-47.147-85.333-117.547-213.333h-299.307l-5.547 11.52-136.32 287.147-40.32 85.333h-139.307v-85.333h85.333l153.6-323.627-57.813-104.533c-6.613-12.373-10.453-26.24-10.453-41.173 0-47.147 38.187-85.333 85.333-85.333h512v85.333h-493.867c-5.973 0-10.667 4.693-10.667 10.667z" />
<glyph unicode="&#xf008;" d="M938.667 715.947l-196.053 164.48-54.827-65.28 196.053-164.48 54.827 65.28zM336.213 815.36l-54.827 65.28-196.053-164.48 54.827-65.28 196.053 164.48zM533.333 618.667h-64v-256l202.453-121.813 32.213 52.693-170.667 101.12v224zM511.787 789.333c-212.267 0-383.787-171.947-383.787-384s171.52-384 383.787-384 384.213 171.947 384.213 384-171.947 384-384.213 384zM512 106.667c-164.907 0-298.667 133.76-298.667 298.667s133.76 298.667 298.667 298.667 298.667-133.76 298.667-298.667-133.547-298.667-298.667-298.667z" />
<glyph unicode="&#xf009;" d="M336.213 815.36l-54.827 65.28-196.053-164.48 54.827-65.28 196.053 164.48zM938.667 715.947l-196.053 164.48-54.827-65.28 196.053-164.48 54.827 65.28zM511.787 789.333c-212.267 0-383.787-171.947-383.787-384s171.52-384 383.787-384 384.213 171.947 384.213 384-171.947 384-384.213 384zM512 106.667c-164.907 0-298.667 133.76-298.667 298.667s133.76 298.667 298.667 298.667 298.667-133.76 298.667-298.667-133.547-298.667-298.667-298.667zM554.667 576h-85.333v-128h-128v-85.333h128v-128h85.333v128h128v85.333h-128v128z" />
<glyph unicode="&#xf00a;" d="M512 704c164.907 0 298.667-133.76 298.667-298.667 0-36.053-6.613-70.4-18.347-102.4l64.853-64.853c24.747 50.56 38.827 107.307 38.827 167.253 0 212.053-171.947 384-384.213 384-59.947 0-116.48-14.080-167.253-38.613l65.067-65.067c32 11.733 66.347 18.347 102.4 18.347zM938.667 715.947l-196.053 164.48-54.827-65.28 196.053-164.48 54.827 65.28zM124.587 862.080l-54.4-54.187 56.747-56.747-47.36-39.68 60.587-60.587 47.36 39.68 34.133-34.133c-58.24-67.413-93.653-155.093-93.653-251.093 0-212.053 171.52-384 383.787-384 96.213 0 183.893 35.627 251.093 93.867l93.867-93.867 54.187 54.4-786.347 786.347zM702.72 175.36c-51.84-42.88-118.187-68.693-190.72-68.693-164.907 0-298.667 133.76-298.667 298.667 0 72.533 25.813 138.88 68.693 190.72l420.693-420.693zM341.973 820.267l-60.587 60.587-36.267-30.507 60.587-60.587 36.267 30.507z" />
<glyph unicode="&#xf00b;" d="M938.667 715.947l-196.053 164.48-54.827-65.28 196.053-164.48 54.827 65.28zM336.213 815.36l-54.827 65.28-196.053-164.48 54.827-65.28 196.053 164.48zM511.787 789.333c-212.267 0-383.787-171.947-383.787-384s171.52-384 383.787-384 384.213 171.947 384.213 384-171.947 384-384.213 384zM512 106.667c-164.907 0-298.667 133.76-298.667 298.667s133.76 298.667 298.667 298.667 298.667-133.76 298.667-298.667-133.547-298.667-298.667-298.667zM449.493 340.267l-90.453 90.453-45.227-45.227 135.68-135.68 256.213 256.213-45.227 45.227-210.987-210.987z" />
<glyph unicode="&#xf00c;" d="M256 192c0-23.467 19.2-42.667 42.667-42.667h42.667v-149.333c0-35.413 28.587-64 64-64s64 28.587 64 64v149.333h85.333v-149.333c0-35.413 28.587-64 64-64s64 28.587 64 64v149.333h42.667c23.467 0 42.667 19.2 42.667 42.667v426.667h-512v-426.667zM149.333 618.667c-35.413 0-64-28.587-64-64v-298.667c0-35.413 28.587-64 64-64s64 28.587 64 64v298.667c0 35.413-28.587 64-64 64zM874.667 618.667c-35.413 0-64-28.587-64-64v-298.667c0-35.413 28.587-64 64-64s64 28.587 64 64v298.667c0 35.413-28.587 64-64 64zM662.613 867.84l55.68 55.68c8.32 8.32 8.32 21.76 0 30.080s-21.76 8.32-30.080 0l-63.147-62.933c-34.133 16.853-72.32 26.667-113.067 26.667-40.96 0-79.36-9.813-113.707-26.88l-63.36 63.36c-8.32 8.32-21.76 8.32-30.080 0s-8.32-21.76 0-30.080l55.893-55.893c-63.36-46.72-104.747-121.813-104.747-206.507h512c0 84.907-41.6 160-105.387 206.507zM426.667 746.667h-42.667v42.667h42.667v-42.667zM640 746.667h-42.667v42.667h42.667v-42.667z" />
<glyph unicode="&#xf00d;" d="M853.333 874.667h-682.667c-47.147 0-84.907-38.187-84.907-85.333l-0.427-768 170.667 170.667h597.333c47.147 0 85.333 38.187 85.333 85.333v512c0 47.147-38.187 85.333-85.333 85.333zM554.667 490.667h-85.333v256h85.333v-256zM554.667 320h-85.333v85.333h85.333v-85.333z" />
<glyph unicode="&#xf00e;" d="M810.667 448h-85.333v-128h-128v-85.333h213.333v213.333zM298.667 576h128v85.333h-213.333v-213.333h85.333v128zM896 832h-768c-47.147 0-85.333-38.187-85.333-85.333v-597.333c0-47.147 38.187-85.333 85.333-85.333h768c47.147 0 85.333 38.187 85.333 85.333v597.333c0 47.147-38.187 85.333-85.333 85.333zM896 148.693h-768v598.613h768v-598.613z" />
<glyph unicode="&#xf00f;" d="M810.667 832h-597.333c-47.147 0-85.333-38.187-85.333-85.333v-597.333c0-47.147 38.187-85.333 85.333-85.333h597.333c47.147 0 85.333 38.187 85.333 85.333v597.333c0 47.147-38.187 85.333-85.333 85.333zM384 234.667h-85.333v298.667h85.333v-298.667zM554.667 234.667h-85.333v426.667h85.333v-426.667zM725.333 234.667h-85.333v170.667h85.333v-170.667z" />
<glyph unicode="&#xf010;" d="M810.667 832h-178.56c-17.493 49.493-64.427 85.333-120.107 85.333s-102.613-35.84-120.107-85.333h-178.56c-47.147 0-85.333-38.187-85.333-85.333v-597.333c0-47.147 38.187-85.333 85.333-85.333h597.333c47.147 0 85.333 38.187 85.333 85.333v597.333c0 47.147-38.187 85.333-85.333 85.333zM512 832c23.467 0 42.667-18.987 42.667-42.667s-19.2-42.667-42.667-42.667-42.667 18.987-42.667 42.667 19.2 42.667 42.667 42.667zM597.333 234.667h-298.667v85.333h298.667v-85.333zM725.333 405.333h-426.667v85.333h426.667v-85.333zM725.333 576h-426.667v85.333h426.667v-85.333z" />
<glyph unicode="&#xf011;" d="M810.667 832h-178.56c-17.493 49.493-64.427 85.333-120.107 85.333s-102.613-35.84-120.107-85.333h-178.56c-47.147 0-85.333-38.187-85.333-85.333v-597.333c0-47.147 38.187-85.333 85.333-85.333h597.333c47.147 0 85.333 38.187 85.333 85.333v597.333c0 47.147-38.187 85.333-85.333 85.333zM512 832c23.467 0 42.667-18.987 42.667-42.667s-19.2-42.667-42.667-42.667-42.667 18.987-42.667 42.667 19.2 42.667 42.667 42.667zM512 661.333c70.613 0 128-57.387 128-128 0-70.827-57.387-128-128-128s-128 57.173-128 128c0 70.613 57.387 128 128 128zM768 149.333h-512v59.733c0 85.333 170.667 132.267 256 132.267s256-46.933 256-132.267v-59.733z" />
<glyph unicode="&#xf012;" d="M810.667 832h-178.56c-17.493 49.493-64.427 85.333-120.107 85.333s-102.613-35.84-120.107-85.333h-178.56c-47.147 0-85.333-38.187-85.333-85.333v-597.333c0-47.147 38.187-85.333 85.333-85.333h597.333c47.147 0 85.333 38.187 85.333 85.333v597.333c0 47.147-38.187 85.333-85.333 85.333zM554.667 192h-85.333v85.333h85.333v-85.333zM554.667 362.667h-85.333v256h85.333v-256zM512 746.667c-23.467 0-42.667 18.987-42.667 42.667s19.2 42.667 42.667 42.667 42.667-18.987 42.667-42.667-19.2-42.667-42.667-42.667z" />
<glyph unicode="&#xf013;" d="M810.667 832h-178.56c-17.493 49.493-64.427 85.333-120.107 85.333s-102.613-35.84-120.107-85.333h-178.56c-47.147 0-85.333-38.187-85.333-85.333v-597.333c0-47.147 38.187-85.333 85.333-85.333h597.333c47.147 0 85.333 38.187 85.333 85.333v597.333c0 47.147-38.187 85.333-85.333 85.333zM512 832c23.467 0 42.667-18.987 42.667-42.667s-19.2-42.667-42.667-42.667-42.667 18.987-42.667 42.667 19.2 42.667 42.667 42.667zM682.667 320h-170.667v-128l-213.333 213.333 213.333 213.333v-128h170.667v-170.667z" />
<glyph unicode="&#xf014;" d="M810.667 832h-178.56c-17.493 49.493-64.427 85.333-120.107 85.333s-102.613-35.84-120.107-85.333h-178.56c-47.147 0-85.333-38.187-85.333-85.333v-597.333c0-47.147 38.187-85.333 85.333-85.333h597.333c47.147 0 85.333 38.187 85.333 85.333v597.333c0 47.147-38.187 85.333-85.333 85.333zM512 832c23.467 0 42.667-18.987 42.667-42.667s-19.2-42.667-42.667-42.667-42.667 18.987-42.667 42.667 19.2 42.667 42.667 42.667zM512 192l-213.333 213.333h128v170.667h170.667v-170.667h128l-213.333-213.333z" />
<glyph unicode="&#xf015;" d="M810.667 832h-178.56c-17.493 49.493-64.427 85.333-120.107 85.333s-102.613-35.84-120.107-85.333h-178.56c-47.147 0-85.333-38.187-85.333-85.333v-597.333c0-47.147 38.187-85.333 85.333-85.333h597.333c47.147 0 85.333 38.187 85.333 85.333v597.333c0 47.147-38.187 85.333-85.333 85.333zM512 832c23.467 0 42.667-18.987 42.667-42.667s-19.2-42.667-42.667-42.667-42.667 18.987-42.667 42.667 19.2 42.667 42.667 42.667zM426.667 234.667l-170.667 170.667 60.373 60.373 110.293-110.293 280.96 280.96 60.373-60.373-341.333-341.333z" />
<glyph unicode="&#xf016;" d="M512 704v-128l170.667 170.667-170.667 170.667v-128c-188.587 0-341.333-152.747-341.333-341.333 0-66.987 19.627-129.067 52.907-181.76l62.293 62.293c-18.987 35.627-29.867 76.16-29.867 119.467 0 141.44 114.56 256 256 256zM800.427 629.76l-62.293-62.293c18.987-35.627 29.867-76.16 29.867-119.467 0-141.44-114.56-256-256-256v128l-170.667-170.667 170.667-170.667v128c188.587 0 341.333 152.747 341.333 341.333 0 66.987-19.627 129.067-52.907 181.76z" />
<glyph unicode="&#xf017;" d="M825.813 531.84c-29.013 146.773-158.507 257.493-313.813 257.493-123.307 0-230.187-69.973-283.733-172.16-128.213-13.867-228.267-122.453-228.267-254.507 0-141.44 114.56-256 256-256h554.667c117.76 0 213.333 95.573 213.333 213.333 0 112.64-87.68 203.947-198.187 211.84zM597.333 405.333v-170.667h-170.667v170.667h-128l213.333 213.333 213.333-213.333h-128z" />
<glyph unicode="&#xf018;" d="M768 874.667h-512c-47.147 0-85.333-38.187-85.333-85.333v-682.667c0-47.147 38.187-85.333 85.333-85.333h512c47.147 0 85.333 38.187 85.333 85.333v682.667c0 47.147-38.187 85.333-85.333 85.333zM256 789.333h213.333v-341.333l-106.667 64-106.667-64v341.333z" />
<glyph unicode="&#xf019;" d="M725.333 832h-426.667c-47.147 0-84.907-38.187-84.907-85.333l-0.427-682.667 298.667 128 298.667-128v682.667c0 47.147-38.187 85.333-85.333 85.333z" />
<glyph unicode="&#xf01a;" d="M725.333 832h-426.667c-47.147 0-84.907-38.187-84.907-85.333l-0.427-682.667 298.667 128 298.667-128v682.667c0 47.147-38.187 85.333-85.333 85.333zM725.333 192l-213.333 92.8-213.333-92.8v554.667h426.667v-554.667z" />
<glyph unicode="&#xf01b;" d="M853.333 618.667h-119.893c-19.2 33.28-45.653 62.080-77.44 83.627l69.333 69.333-60.373 60.373-92.8-92.8c-19.2 4.693-39.467 7.467-60.16 7.467s-40.96-2.773-60.16-7.467l-92.8 92.8-60.373-60.373 69.333-69.333c-31.787-21.547-58.24-50.347-77.44-83.627h-119.893v-85.333h89.173c-2.347-13.867-3.84-28.16-3.84-42.667v-42.667h-85.333v-85.333h85.333v-42.667c0-14.507 1.493-28.8 3.84-42.667h-89.173v-85.333h119.893c44.16-76.373 126.72-128 221.44-128s177.28 51.627 221.44 128h119.893v85.333h-89.173c2.347 13.867 3.84 28.16 3.84 42.667v42.667h85.333v85.333h-85.333v42.667c0 14.507-1.493 28.8-3.84 42.667h89.173v85.333zM597.333 277.333h-170.667v85.333h170.667v-85.333zM597.333 448h-170.667v85.333h170.667v-85.333z" />
<glyph unicode="&#xf01c;" d="M810.667 618.667l-170.667-170.667h128c0-141.44-114.56-256-256-256-43.307 0-83.84 10.88-119.68 29.653l-62.293-62.293c52.907-33.067 114.987-52.693 181.973-52.693 188.587 0 341.333 152.747 341.333 341.333h128l-170.667 170.667zM256 448c0 141.44 114.56 256 256 256 43.307 0 83.84-10.88 119.68-29.653l62.293 62.293c-52.907 33.067-114.987 52.693-181.973 52.693-188.587 0-341.333-152.747-341.333-341.333h-128l170.667-170.667 170.667 170.667h-128z" />
<glyph unicode="&#xf01d;" d="M768 874.667h-512c-47.147 0-85.333-38.187-85.333-85.333v-682.667c0-47.147 38.187-85.333 85.333-85.333h512c47.147 0 85.333 38.187 85.333 85.333v682.667c0 47.147-38.187 85.333-85.333 85.333zM256 789.333h213.333v-341.333l-106.667 64-106.667-64v341.333z" />
<glyph unicode="&#xf01e;" d="M853.333 789.333h-682.667c-47.147 0-84.907-38.187-84.907-85.333l-0.427-512c0-47.147 38.187-85.333 85.333-85.333h682.667c47.147 0 85.333 38.187 85.333 85.333v512c0 47.147-38.187 85.333-85.333 85.333zM853.333 192h-682.667v256h682.667v-256zM853.333 618.667h-682.667v85.333h682.667v-85.333z" />
<glyph unicode="&#xf01f;" d="M128 405.333h341.333v426.667h-341.333v-426.667zM128 64h341.333v256h-341.333v-256zM554.667 64h341.333v426.667h-341.333v-426.667zM554.667 832v-256h341.333v256h-341.333z" />
<glyph unicode="&#xf020;" d="M256 149.333c0-47.147 38.187-85.333 85.333-85.333h341.333c47.147 0 85.333 38.187 85.333 85.333v512h-512v-512zM810.667 789.333h-149.333l-42.667 42.667h-213.333l-42.667-42.667h-149.333v-85.333h597.333v85.333z" />
<glyph unicode="&#xf021;" d="M597.333 874.667h-341.333c-47.147 0-84.907-38.187-84.907-85.333l-0.427-682.667c0-47.147 37.76-85.333 84.907-85.333h512.427c47.147 0 85.333 38.187 85.333 85.333v512l-256 256zM682.667 192h-341.333v85.333h341.333v-85.333zM682.667 362.667h-341.333v85.333h341.333v-85.333zM554.667 576v234.667l234.667-234.667h-234.667z" />
<glyph unicode="&#xf022;" d="M853.333 405.333h-682.667c-23.467 0-42.667-19.2-42.667-42.667v-256c0-23.467 19.2-42.667 42.667-42.667h682.667c23.467 0 42.667 19.2 42.667 42.667v256c0 23.467-19.2 42.667-42.667 42.667zM298.667 149.333c-47.147 0-85.333 38.187-85.333 85.333s38.187 85.333 85.333 85.333 85.333-38.187 85.333-85.333-38.187-85.333-85.333-85.333zM853.333 832h-682.667c-23.467 0-42.667-19.2-42.667-42.667v-256c0-23.467 19.2-42.667 42.667-42.667h682.667c23.467 0 42.667 19.2 42.667 42.667v256c0 23.467-19.2 42.667-42.667 42.667zM298.667 576c-47.147 0-85.333 38.187-85.333 85.333s38.187 85.333 85.333 85.333 85.333-38.187 85.333-85.333-38.187-85.333-85.333-85.333z" />
<glyph unicode="&#xf023;" d="M384 270.080l-177.92 177.92-60.373-60.373 238.293-238.293 512 512-60.373 60.373z" />
<glyph unicode="&#xf024;" d="M768 661.333l-60.373 60.373-270.507-270.72 60.373-60.373 270.507 270.72zM949.12 721.707l-451.84-451.627-177.92 177.92-60.373-60.373 238.293-238.293 512 512-60.16 60.373zM17.707 387.627l238.293-238.293 60.373 60.373-238.293 238.293-60.373-60.373z" />
<glyph unicode="&#xf025;" d="M725.333 448h-213.333v-213.333h213.333v213.333zM682.667 917.333v-85.333h-341.333v85.333h-85.333v-85.333h-42.667c-47.147 0-84.907-38.187-84.907-85.333l-0.427-597.333c0-47.147 38.187-85.333 85.333-85.333h597.333c47.147 0 85.333 38.187 85.333 85.333v597.333c0 47.147-38.187 85.333-85.333 85.333h-42.667v85.333h-85.333zM810.667 149.333h-597.333v469.333h597.333v-469.333z" />
<glyph unicode="&#xf026;" d="M430.293 295.040l60.373-60.373 213.333 213.333-213.333 213.333-60.373-60.373 110.293-110.293h-412.587v-85.333h412.587l-110.293-110.293zM810.667 832h-597.333c-47.147 0-85.333-38.187-85.333-85.333v-170.667h85.333v170.667h597.333v-597.333h-597.333v170.667h-85.333v-170.667c0-47.147 38.187-85.333 85.333-85.333h597.333c47.147 0 85.333 38.187 85.333 85.333v597.333c0 47.147-38.187 85.333-85.333 85.333z" />
<glyph unicode="&#xf027;" d="M512 494.933c-25.813 0-46.933-21.12-46.933-46.933s21.12-46.933 46.933-46.933c26.027 0 46.933 21.12 46.933 46.933s-20.907 46.933-46.933 46.933zM512 874.667c-235.733 0-426.667-190.933-426.667-426.667 0-235.52 190.933-426.667 426.667-426.667s426.667 191.147 426.667 426.667c0 235.733-190.933 426.667-426.667 426.667zM605.44 354.56l-349.44-162.56 162.56 349.44 349.44 162.56-162.56-349.44z" />
<glyph unicode="&#xf028;" d="M874.667 490.667h-64v170.667c0 47.147-38.187 85.333-85.333 85.333h-170.667v64c0 58.88-47.787 106.667-106.667 106.667s-106.667-47.787-106.667-106.667v-64h-170.667c-47.147 0-84.907-38.187-84.907-85.333l-0.213-162.133h63.787c63.573 0 115.2-51.627 115.2-115.2s-51.627-115.2-115.2-115.2h-63.787l-0.213-162.133c0-47.147 38.187-85.333 85.333-85.333h162.133v64c0 63.573 51.627 115.2 115.2 115.2s115.2-51.627 115.2-115.2v-64h162.133c47.147 0 85.333 38.187 85.333 85.333v170.667h64c58.88 0 106.667 47.787 106.667 106.667s-47.787 106.667-106.667 106.667z" />
<glyph unicode="&#xf029;" d="M626.987 230.187c-31.787-24.533-72.533-38.187-114.987-38.187s-83.2 13.653-114.987 38.187c-9.173 7.253-22.613 5.547-29.867-3.84s-5.547-22.613 3.84-29.867c39.040-30.293 89.173-47.147 141.013-47.147s101.973 16.853 141.013 47.147c9.387 7.253 11.093 20.693 3.84 29.867-7.253 9.387-20.693 11.093-29.867 3.84zM405.333 426.667c0-23.564-19.103-42.667-42.667-42.667s-42.667 19.103-42.667 42.667c0 23.564 19.103 42.667 42.667 42.667s42.667-19.103 42.667-42.667zM512 960c-282.667 0-512-229.333-512-512s229.333-512 512-512 512 229.333 512 512-229.333 512-512 512zM851.627 327.68c-46.507-159.573-182.187-275.413-343.040-275.413-161.067 0-296.96 116.267-343.253 276.267-50.773 4.267-90.667 50.347-90.667 107.093 0 54.187 36.48 98.773 83.84 106.453v0.213c89.173 62.507 162.347 148.907 174.72 215.467l0.213-0.213v0.64c57.813-112 268.8-221.44 504.533-215.893 4.267 0.64 8.32 1.493 12.587 1.493 54.4 0 98.56-48.427 98.56-108.16 0.213-59.307-43.52-107.52-97.493-107.947zM704 426.667c0-23.564-19.103-42.667-42.667-42.667s-42.667 19.103-42.667 42.667c0 23.564 19.103 42.667 42.667 42.667s42.667-19.103 42.667-42.667z" />
<glyph unicode="&#xf02a;" d="M512 49.067l-61.867 56.107c-219.733 199.467-364.8 331.093-364.8 492.16 0 131.627 103.040 234.667 234.667 234.667 74.24 0 145.493-34.56 192-88.96 46.507 54.4 117.76 88.96 192 88.96 131.627 0 234.667-103.040 234.667-234.667 0-161.067-145.067-292.693-364.8-492.16l-61.867-56.107z" />
<glyph unicode="&#xf02b;" d="M704 832c-74.24 0-145.493-34.56-192-88.96-46.507 54.4-117.76 88.96-192 88.96-131.627 0-234.667-103.040-234.667-234.667 0-161.067 145.067-292.693 364.8-492.16l61.867-56.107 61.867 56.107c219.733 199.467 364.8 331.093 364.8 492.16 0 131.627-103.040 234.667-234.667 234.667zM516.48 168.32l-4.48-4.053-4.48 4.053c-202.88 184.107-336.853 305.707-336.853 429.013 0 85.12 64.213 149.333 149.333 149.333 65.707 0 129.707-42.453 152.107-100.693h79.573c22.613 58.24 86.613 100.693 152.32 100.693 85.12 0 149.333-64.213 149.333-149.333 0-123.307-133.973-244.907-336.853-429.013z" />
<glyph unicode="&#xf02c;" d="M853.333 124.373v494.293l-256 256h-341.333c-47.147 0-84.907-38.187-84.907-85.333l-0.427-682.667c0-47.147 37.76-85.333 84.907-85.333h512.427c18.987 0 36.48 6.4 50.56 17.067l-189.227 189.227c-33.493-22.4-73.813-35.627-117.333-35.627-117.76 0-213.333 95.573-213.333 213.333s95.573 213.333 213.333 213.333 213.333-95.573 213.333-213.333c0-43.52-13.227-83.84-35.413-117.547l163.413-163.413zM384 405.333c0-70.613 57.387-128 128-128s128 57.387 128 128-57.387 128-128 128-128-57.387-128-128z" />
<glyph unicode="&#xf02d;" d="M469.333 704c58.88 0 112.213-23.893 150.827-62.507l-108.16-108.16h256v256l-87.467-87.467c-53.973 53.973-128.64 87.467-211.2 87.467-150.4 0-274.56-111.36-295.253-256h86.187c19.84 97.28 105.813 170.667 209.067 170.667zM709.973 314.24c28.373 38.613 47.573 84.267 54.613 133.76h-86.187c-19.84-97.28-105.813-170.667-209.067-170.667-58.88 0-112.213 23.893-150.827 62.507l108.16 108.16h-256v-256l87.467 87.467c53.973-53.973 128.64-87.467 211.2-87.467 66.133 0 127.147 21.76 176.64 58.24l207.36-207.147 63.573 63.573-206.933 207.573z" />
<glyph unicode="&#xf02e;" d="M384 661.333h-85.333v-85.333h85.333v85.333zM384 490.667h-85.333v-85.333h85.333v85.333zM384 832c-47.147 0-85.333-38.187-85.333-85.333h85.333v85.333zM554.667 320h-85.333v-85.333h85.333v85.333zM810.667 832v-85.333h85.333c0 47.147-38.187 85.333-85.333 85.333zM554.667 832h-85.333v-85.333h85.333v85.333zM384 234.667v85.333h-85.333c0-47.147 38.187-85.333 85.333-85.333zM810.667 405.333h85.333v85.333h-85.333v-85.333zM810.667 576h85.333v85.333h-85.333v-85.333zM810.667 234.667c47.147 0 85.333 38.187 85.333 85.333h-85.333v-85.333zM213.333 661.333h-85.333v-512c0-47.147 38.187-85.333 85.333-85.333h512v85.333h-512v512zM640 746.667h85.333v85.333h-85.333v-85.333zM640 234.667h85.333v85.333h-85.333v-85.333z" />
<glyph unicode="&#xf02f;" d="M128 405.333h85.333v85.333h-85.333v-85.333zM128 234.667h85.333v85.333h-85.333v-85.333zM213.333 64v85.333h-85.333c0-47.147 38.187-85.333 85.333-85.333zM128 576h85.333v85.333h-85.333v-85.333zM640 64h85.333v85.333h-85.333v-85.333zM810.667 832h-426.667c-47.147 0-85.333-38.187-85.333-85.333v-426.667c0-47.147 38.187-85.333 85.333-85.333h426.667c47.147 0 85.333 38.187 85.333 85.333v426.667c0 47.147-38.187 85.333-85.333 85.333zM810.667 320h-426.667v426.667h426.667v-426.667zM469.333 64h85.333v85.333h-85.333v-85.333zM298.667 64h85.333v85.333h-85.333v-85.333z" />
<glyph unicode="&#xf030;" d="M810.667 576h-170.667v256h-256v-256h-170.667l298.667-298.667 298.667 298.667zM213.333 192v-85.333h597.333v85.333h-597.333z" />
<glyph unicode="&#xf031;" d="M512 223.147l263.68-159.147-69.76 299.947 232.747 201.6-306.773 26.453-119.893 282.667-119.893-282.667-306.773-26.453 232.747-201.6-69.76-299.947z" />
<glyph unicode="&#xf032;" d="M512 874.667c-235.733 0-426.667-190.933-426.667-426.667 0-235.52 190.933-426.667 426.667-426.667s426.667 191.147 426.667 426.667c0 235.733-190.933 426.667-426.667 426.667zM341.333 213.333c-58.88 0-106.667 47.787-106.667 106.667s47.787 106.667 106.667 106.667 106.667-47.787 106.667-106.667-47.787-106.667-106.667-106.667zM405.333 618.667c0 58.88 47.787 106.667 106.667 106.667s106.667-47.787 106.667-106.667-47.787-106.667-106.667-106.667-106.667 47.787-106.667 106.667zM682.667 213.333c-58.88 0-106.667 47.787-106.667 106.667s47.787 106.667 106.667 106.667 106.667-47.787 106.667-106.667-47.787-106.667-106.667-106.667z" />
<glyph unicode="&#xf033;" d="M512 874.667c-235.733 0-426.667-190.933-426.667-426.667s190.933-426.667 426.667-426.667 426.667 190.933 426.667 426.667-190.933 426.667-426.667 426.667zM554.667 149.333h-85.333v85.333h85.333v-85.333zM642.773 479.787l-38.187-39.253c-30.72-30.72-49.92-56.533-49.92-120.533h-85.333v21.333c0 47.147 19.2 89.813 49.92 120.747l53.12 53.76c15.36 15.36 24.96 36.693 24.96 60.16 0 47.147-38.187 85.333-85.333 85.333s-85.333-38.187-85.333-85.333h-85.333c0 94.293 76.373 170.667 170.667 170.667s170.667-76.373 170.667-170.667c0-37.547-15.147-71.467-39.893-96.213z" />
<glyph unicode="&#xf034;" d="M622.293 618.667l-110.293-110.293-110.293 110.293-60.373-60.373 110.293-110.293-110.293-110.293 60.373-60.373 110.293 110.293 110.293-110.293 60.373 60.373-110.293 110.293 110.293 110.293-60.373 60.373zM512 874.667c-235.733 0-426.667-190.933-426.667-426.667s190.933-426.667 426.667-426.667 426.667 190.933 426.667 426.667-190.933 426.667-426.667 426.667zM512 106.667c-188.16 0-341.333 153.173-341.333 341.333s153.173 341.333 341.333 341.333 341.333-153.173 341.333-341.333-153.173-341.333-341.333-341.333z" />
<glyph unicode="&#xf035;" d="M554.453 832c-212.267 0-383.787-171.947-383.787-384h-128l166.187-166.187 2.987-6.187 172.16 172.373h-128c0 164.907 133.76 298.667 298.667 298.667s298.667-133.76 298.667-298.667-133.76-298.667-298.667-298.667c-82.56 0-157.013 33.707-210.987 87.68l-60.373-60.373c69.333-69.547 165.12-112.64 271.147-112.64 212.267 0 384.213 171.947 384.213 384s-171.947 384-384.213 384zM512 618.667v-213.333l182.613-108.373 30.72 51.84-149.333 88.533v181.333h-64z" />
<glyph unicode="&#xf036;" d="M426.667 106.667v256h170.667v-256h213.333v341.333h128l-426.667 384-426.667-384h128v-341.333z" />
<glyph unicode="&#xf037;" d="M768 618.667h-42.667v85.333c0 117.76-95.573 213.333-213.333 213.333s-213.333-95.573-213.333-213.333v-85.333h-42.667c-47.147 0-85.333-38.187-85.333-85.333v-426.667c0-47.147 38.187-85.333 85.333-85.333h512c47.147 0 85.333 38.187 85.333 85.333v426.667c0 47.147-38.187 85.333-85.333 85.333zM512 234.667c-47.147 0-85.333 38.187-85.333 85.333s38.187 85.333 85.333 85.333 85.333-38.187 85.333-85.333-38.187-85.333-85.333-85.333zM644.267 618.667h-264.533v85.333c0 72.96 59.307 132.267 132.267 132.267s132.267-59.307 132.267-132.267v-85.333z" />
<glyph unicode="&#xf038;" d="M512 874.667c-235.733 0-426.667-190.933-426.667-426.667s190.933-426.667 426.667-426.667 426.667 190.933 426.667 426.667-190.933 426.667-426.667 426.667zM554.667 234.667h-85.333v256h85.333v-256zM554.667 576h-85.333v85.333h85.333v-85.333z" />
<glyph unicode="&#xf039;" d="M469.333 234.667h85.333v256h-85.333v-256zM512 874.667c-235.733 0-426.667-190.933-426.667-426.667s190.933-426.667 426.667-426.667 426.667 190.933 426.667 426.667-190.933 426.667-426.667 426.667zM512 106.667c-188.16 0-341.333 153.173-341.333 341.333s153.173 341.333 341.333 341.333 341.333-153.173 341.333-341.333-153.173-341.333-341.333-341.333zM469.333 576h85.333v85.333h-85.333v-85.333z" />
<glyph unicode="&#xf03a;" d="M896 831.573h-768c-47.147 0-85.333-38.187-85.333-85.333v-170.24h85.333v171.093h768v-598.613h-768v171.52h-85.333v-171.093c0-47.147 38.187-84.48 85.333-84.48h768c47.147 0 85.333 37.547 85.333 84.48v597.333c0 47.147-38.187 85.333-85.333 85.333zM469.333 277.333l170.667 170.667-170.667 170.667v-128h-426.667v-85.333h426.667v-128z" />
<glyph unicode="&#xf03b;" d="M753.28 621.653l-241.28 241.493-241.28-241.493c-133.333-133.333-133.333-349.44 0-482.773 66.56-66.56 154.027-100.053 241.28-100.053s174.72 33.28 241.28 100.053c133.333 133.333 133.333 349.44 0 482.773zM512 124.373c-68.48 0-132.693 26.667-180.907 75.093-48.427 48.213-75.093 112.427-75.093 180.907s26.667 132.693 75.093 181.12l180.907 180.907v-618.027z" />
<glyph unicode="&#xf03c;" d="M752.427 710.613c-15.573 21.76-40.96 36.053-69.76 36.053l-469.333-0.427c-47.147 0-85.333-37.76-85.333-84.907v-426.667c0-47.147 38.187-84.907 85.333-84.907l469.333-0.427c28.8 0 54.187 14.293 69.76 36.053l186.24 262.613-186.24 262.613z" />
<glyph unicode="&#xf03d;" d="M752.427 710.613c-15.573 21.76-40.96 36.053-69.76 36.053l-469.333-0.427c-47.147 0-85.333-37.76-85.333-84.907v-426.667c0-47.147 38.187-84.907 85.333-84.907l469.333-0.427c28.8 0 54.187 14.293 69.76 36.053l186.24 262.613-186.24 262.613zM682.667 234.667h-469.333v426.667h469.333l151.253-213.333-151.253-213.333z" />
<glyph unicode="&#xf03e;" d="M511.787 874.667c-235.733 0-426.453-190.933-426.453-426.667s190.72-426.667 426.453-426.667c235.733 0 426.88 190.933 426.88 426.667s-191.147 426.667-426.88 426.667zM807.253 618.667h-125.867c-13.867 53.333-33.28 104.533-58.88 151.893 78.507-26.88 143.787-81.28 184.747-151.893zM512 787.84c35.627-51.2 63.36-108.16 81.493-169.173h-162.987c18.133 61.013 45.867 117.973 81.493 169.173zM181.76 362.667c-7.040 27.307-11.093 55.893-11.093 85.333s4.053 58.027 11.093 85.333h144c-3.413-27.947-5.76-56.32-5.76-85.333s2.347-57.387 5.973-85.333h-144.213zM216.533 277.333h125.867c13.867-53.333 33.28-104.533 58.88-152.107-78.507 26.88-143.787 81.493-184.747 152.107zM342.4 618.667h-125.867c40.96 70.613 106.24 125.227 184.747 152.107-25.6-47.573-45.013-98.773-58.88-152.107zM512 108.16c-35.413 51.2-63.147 108.16-81.493 169.173h162.987c-18.347-61.013-46.080-117.973-81.493-169.173zM611.84 362.667h-199.68c-4.053 27.947-6.827 56.32-6.827 85.333s2.773 57.387 6.827 85.333h199.68c4.053-27.947 6.827-56.32 6.827-85.333s-2.773-57.387-6.827-85.333zM622.72 125.44c25.6 47.573 45.013 98.56 58.88 151.893h125.867c-41.173-70.613-106.453-125.013-184.747-151.893zM698.027 362.667c3.413 27.947 5.973 56.32 5.973 85.333s-2.347 57.387-5.973 85.333h144c7.040-27.307 11.307-55.893 11.307-85.333s-4.053-58.027-11.307-85.333h-144z" />
<glyph unicode="&#xf03f;" d="M810.667 149.333h-597.333v597.333h298.667v85.333h-298.667c-47.147 0-85.333-38.187-85.333-85.333v-597.333c0-47.147 38.187-85.333 85.333-85.333h597.333c47.147 0 85.333 38.187 85.333 85.333v298.667h-85.333v-298.667zM597.333 832v-85.333h152.96l-419.413-419.413 60.373-60.373 419.413 419.413v-152.96h85.333v298.667h-298.667z" />
<glyph unicode="&#xf040;" d="M128 405.333h85.333v85.333h-85.333v-85.333zM128 234.667h85.333v85.333h-85.333v-85.333zM128 576h85.333v85.333h-85.333v-85.333zM298.667 405.333h597.333v85.333h-597.333v-85.333zM298.667 234.667h597.333v85.333h-597.333v-85.333zM298.667 661.333v-85.333h597.333v85.333h-597.333z" />
<glyph unicode="&#xf041;" d="M768 618.667h-42.667v85.333c0 117.76-95.573 213.333-213.333 213.333s-213.333-95.573-213.333-213.333v-85.333h-42.667c-47.147 0-85.333-38.187-85.333-85.333v-426.667c0-47.147 38.187-85.333 85.333-85.333h512c47.147 0 85.333 38.187 85.333 85.333v426.667c0 47.147-38.187 85.333-85.333 85.333zM512 234.667c-47.147 0-85.333 38.187-85.333 85.333s38.187 85.333 85.333 85.333 85.333-38.187 85.333-85.333-38.187-85.333-85.333-85.333zM644.267 618.667h-264.533v85.333c0 72.96 59.307 132.267 132.267 132.267s132.267-59.307 132.267-132.267v-85.333z" />
<glyph unicode="&#xf042;" d="M512 234.667c47.147 0 85.333 38.187 85.333 85.333s-38.187 85.333-85.333 85.333-85.333-38.187-85.333-85.333 38.187-85.333 85.333-85.333zM768 618.667h-42.667v85.333c0 117.76-95.573 213.333-213.333 213.333s-213.333-95.573-213.333-213.333h81.067c0 72.96 59.307 132.267 132.267 132.267s132.267-59.307 132.267-132.267v-85.333h-388.267c-47.147 0-85.333-38.187-85.333-85.333v-426.667c0-47.147 38.187-85.333 85.333-85.333h512c47.147 0 85.333 38.187 85.333 85.333v426.667c0 47.147-38.187 85.333-85.333 85.333zM768 106.667h-512v426.667h512v-426.667z" />
<glyph unicode="&#xf043;" d="M768 618.667h-42.667v85.333c0 117.76-95.573 213.333-213.333 213.333s-213.333-95.573-213.333-213.333v-85.333h-42.667c-47.147 0-85.333-38.187-85.333-85.333v-426.667c0-47.147 38.187-85.333 85.333-85.333h512c47.147 0 85.333 38.187 85.333 85.333v426.667c0 47.147-38.187 85.333-85.333 85.333zM512 836.267c72.96 0 132.267-59.307 132.267-132.267v-85.333h-260.267v85.333h-4.267c0 72.96 59.307 132.267 132.267 132.267zM768 106.667h-512v426.667h512v-426.667zM512 234.667c47.147 0 85.333 38.187 85.333 85.333s-38.187 85.333-85.333 85.333-85.333-38.187-85.333-85.333 38.187-85.333 85.333-85.333z" />
<glyph unicode="&#xf044;" d="M913.493 465.92l-383.787 383.787c-15.36 15.36-36.693 24.96-60.373 24.96h-298.667c-47.147 0-85.333-38.187-85.333-85.333v-298.667c0-23.68 9.6-45.013 25.173-60.373l384-384c15.36-15.36 36.693-24.96 60.16-24.96 23.68 0 45.013 9.6 60.373 24.96l298.667 298.667c15.36 15.573 24.96 36.907 24.96 60.373 0 23.68-9.6 45.013-25.173 60.587zM234.667 661.333c-35.413 0-64 28.587-64 64s28.587 64 64 64 64-28.587 64-64-28.587-64-64-64zM736.853 308.48l-182.187-182.187-182.187 182.187c-19.2 19.413-31.147 46.080-31.147 75.52 0 58.88 47.787 106.667 106.667 106.667 29.44 0 56.32-11.947 75.52-31.36l31.147-31.147 31.147 31.147c19.413 19.413 46.080 31.36 75.52 31.36 58.88 0 106.667-47.787 106.667-106.667 0-29.44-11.947-56.107-31.147-75.52z" />
<glyph unicode="&#xf045;" d="M853.333 704h-426.667v-256h-85.333v341.333h256v170.667h-341.333v-256h-85.333c-46.933 0-85.333-38.4-85.333-85.333v-512c0-46.933 38.4-85.333 85.333-85.333h682.667c46.933 0 85.333 38.4 85.333 85.333v512c0 46.933-38.4 85.333-85.333 85.333z" />
<glyph unicode="&#xf046;" d="M597.333 874.667h-341.333c-47.147 0-84.907-38.187-84.907-85.333l-0.427-682.667c0-47.147 37.76-85.333 84.907-85.333h512.427c47.147 0 85.333 38.187 85.333 85.333v512l-256 256zM682.667 277.333h-128v-128h-85.333v128h-128v85.333h128v128h85.333v-128h128v-85.333zM554.667 576v234.667l234.667-234.667h-234.667z" />
<glyph unicode="&#xf047;" d="M810.667 789.333h-597.333c-47.147 0-85.333-38.187-85.333-85.333v-512c0-47.147 38.187-85.333 85.333-85.333h170.667v85.333h-170.667v426.667h597.333v-426.667h-170.667v-85.333h170.667c47.147 0 85.333 38.187 85.333 85.333v512c0 47.147-38.187 85.333-85.333 85.333zM512 533.333l-170.667-170.667h128v-256h85.333v256h128l-170.667 170.667z" />
<glyph unicode="&#xf048;" d="M810.667 149.333h-597.333v597.333h298.667v85.333h-298.667c-47.147 0-85.333-38.187-85.333-85.333v-597.333c0-47.147 38.187-85.333 85.333-85.333h597.333c47.147 0 85.333 38.187 85.333 85.333v298.667h-85.333v-298.667zM597.333 832v-85.333h152.96l-419.413-419.413 60.373-60.373 419.413 419.413v-152.96h85.333v298.667h-298.667z" />
<glyph unicode="&#xf049;" d="M426.667 576h170.667v128h128l-213.333 213.333-213.333-213.333h128v-128zM384 533.333h-128v128l-213.333-213.333 213.333-213.333v128h128v170.667zM981.333 448l-213.333 213.333v-128h-128v-170.667h128v-128l213.333 213.333zM597.333 320h-170.667v-128h-128l213.333-213.333 213.333 213.333h-128v128z" />
<glyph unicode="&#xf04a;" d="M469.333 618.667c-70.613 0-128-57.387-128-128s57.387-128 128-128 128 57.387 128 128-57.387 128-128 128zM810.667 832h-597.333c-47.147 0-85.333-38.187-85.333-85.333v-597.333c0-47.147 38.187-85.333 85.333-85.333h597.333c47.147 0 85.333 38.187 85.333 85.333v597.333c0 47.147-38.187 85.333-85.333 85.333zM750.293 149.333l-163.413 163.413c-33.707-22.187-74.027-35.413-117.547-35.413-117.76 0-213.333 95.573-213.333 213.333s95.573 213.333 213.333 213.333 213.333-95.573 213.333-213.333c0-43.52-13.227-83.84-35.413-117.547l163.413-163.413-60.373-60.373z" />
<glyph unicode="&#xf04b;" d="M853.333 789.333h-682.667c-47.147 0-84.907-38.187-84.907-85.333l-0.427-512c0-47.147 38.187-85.333 85.333-85.333h682.667c47.147 0 85.333 38.187 85.333 85.333v512c0 47.147-38.187 85.333-85.333 85.333zM853.333 192h-682.667v256h682.667v-256zM853.333 618.667h-682.667v85.333h682.667v-85.333z" />
<glyph unicode="&#xf04c;" d="M853.333 746.667h-135.253l-78.080 85.333h-256l-78.080-85.333h-135.253c-47.147 0-85.333-38.187-85.333-85.333v-512c0-47.147 38.187-85.333 85.333-85.333h298.667v89.173c-120.96 20.48-213.333 125.653-213.333 252.16h85.333c0-94.080 76.587-170.667 170.667-170.667s170.667 76.587 170.667 170.667h85.333c0-126.507-92.373-231.68-213.333-252.16v-89.173h298.667c47.147 0 85.333 38.187 85.333 85.333v512c0 47.147-38.187 85.333-85.333 85.333zM597.333 405.333c0-47.147-38.187-85.333-85.333-85.333s-85.333 38.187-85.333 85.333v170.667c0 47.147 38.187 85.333 85.333 85.333s85.333-38.187 85.333-85.333v-170.667z" />
<glyph unicode="&#xf04d;" d="M810.667 832h-42.667v85.333h-85.333v-85.333h-341.333v85.333h-85.333v-85.333h-42.667c-47.147 0-85.333-38.187-85.333-85.333v-597.333c0-47.147 38.187-85.333 85.333-85.333h597.333c47.147 0 85.333 38.187 85.333 85.333v597.333c0 47.147-38.187 85.333-85.333 85.333zM512 704c70.613 0 128-57.387 128-128 0-70.827-57.387-128-128-128s-128 57.173-128 128c0 70.613 57.387 128 128 128zM768 192h-512v42.667c0 85.333 170.667 132.267 256 132.267s256-46.933 256-132.267v-42.667z" />
<glyph unicode="&#xf04e;" d="M810.24 469.333c14.507 0 29.013-1.28 43.093-3.2v493.867l-853.333-853.333h493.44c-1.92 14.080-3.2 28.16-3.2 42.667 0 176.64 143.36 320 320 320zM968.747 128.427c0.853 6.827 1.493 13.653 1.493 20.907 0 7.040-0.64 14.080-1.493 20.907l45.013 35.2c4.053 3.2 5.12 8.96 2.56 13.653l-42.667 73.813c-2.56 4.693-8.32 6.4-13.013 4.693l-53.12-21.333c-11.093 8.533-23.040 15.573-36.053 20.907l-7.893 56.533c-0.853 5.12-5.333 8.96-10.667 8.96h-85.333c-5.333 0-9.813-3.84-10.453-8.96l-7.893-56.533c-13.013-5.333-24.96-12.587-36.053-20.907l-53.12 21.333c-4.907 1.92-10.453 0-13.013-4.693l-42.667-73.813c-2.773-4.693-1.493-10.453 2.56-13.653l45.013-35.2c-0.853-6.827-1.493-13.867-1.493-20.907s0.64-14.080 1.493-20.907l-45.013-35.2c-4.053-3.2-5.12-8.96-2.56-13.653l42.667-73.813c2.773-4.693 8.32-6.4 13.013-4.693l53.12 21.333c11.093-8.533 23.040-15.573 36.053-20.907l7.893-56.533c0.853-5.12 5.333-8.96 10.453-8.96h85.333c5.333 0 9.6 3.84 10.453 8.96l7.893 56.533c13.013 5.333 24.96 12.587 36.053 20.907l53.12-21.333c4.907-1.92 10.453 0 13.013 4.693l42.667 73.813c2.773 4.693 1.493 10.453-2.56 13.653l-44.8 35.2zM810.24 85.333c-35.413 0-64 28.587-64 64s28.587 64 64 64 64-28.587 64-64-28.587-64-64-64z" />
<glyph unicode="&#xf04f;" d="M554.667 661.333h-85.333v-85.333h85.333v85.333zM554.667 490.667h-85.333v-256h85.333v256zM725.333 916.907l-426.667 0.427c-47.147 0-85.333-38.187-85.333-85.333v-768c0-47.147 38.187-85.333 85.333-85.333h426.667c47.147 0 85.333 38.187 85.333 85.333v768c0 47.147-38.187 84.907-85.333 84.907zM725.333 149.333h-426.667v597.333h426.667v-597.333z" />
<glyph unicode="&#xf050;" d="M512 708.267c49.493 0 89.6-40.107 89.6-89.6s-40.107-89.6-89.6-89.6-89.6 40.107-89.6 89.6 40.107 89.6 89.6 89.6zM512 324.267c126.933 0 260.267-62.080 260.267-89.6v-46.933h-520.533v46.933c0 27.52 133.333 89.6 260.267 89.6zM512 789.333c-94.293 0-170.667-76.373-170.667-170.667 0-94.080 76.373-170.667 170.667-170.667s170.667 76.587 170.667 170.667c0 94.293-76.373 170.667-170.667 170.667zM512 405.333c-113.707 0-341.333-56.96-341.333-170.667v-128h682.667v128c0 113.707-227.627 170.667-341.333 170.667z" />
<glyph unicode="&#xf051;" d="M85.333 704h-85.333v-213.333h0.427l-0.427-384c0-47.147 38.187-85.333 85.333-85.333h768v85.333h-768v597.333zM938.667 789.333h-341.333l-85.333 85.333h-256c-47.147 0-84.907-38.187-84.907-85.333l-0.427-512c0-47.147 38.187-85.333 85.333-85.333h682.667c47.147 0 85.333 38.187 85.333 85.333v426.667c0 47.147-38.187 85.333-85.333 85.333zM298.667 320l192 256 149.333-192.213 106.667 128.213 149.333-192h-597.333z" />
<glyph unicode="&#xf052;" d="M853.333 298.667c-53.12 0-104.533 8.533-152.32 24.32-14.72 4.693-31.573 1.28-43.307-10.453l-93.867-94.080c-120.96 61.44-219.52 160.213-281.173 280.96l93.867 94.293c11.733 11.733 15.147 28.587 10.453 43.307-15.787 47.787-24.32 99.2-24.32 152.32 0 23.68-18.987 42.667-42.667 42.667h-149.333c-23.467 0-42.667-18.987-42.667-42.667 0-400.64 324.693-725.333 725.333-725.333 23.68 0 42.667 18.987 42.667 42.667v149.333c0 23.68-18.987 42.667-42.667 42.667zM512 832v-426.667l128 128h256v298.667h-384z" />
<glyph unicode="&#xf053;" d="M512 832c-215.253 0-377.813-78.933-512-180.693l512-629.973 512 629.333c-134.187 101.547-296.747 181.333-512 181.333zM554.667 277.333h-85.333v256h85.333v-256zM469.333 618.667v85.333h85.333v-85.333h-85.333z" />
<glyph unicode="&#xf054;" d="M810.667 661.333h-341.333v-256h341.333v256zM896 832h-768c-47.147 0-85.333-38.187-85.333-85.333v-597.333c0-47.147 38.187-84.48 85.333-84.48h768c47.147 0 85.333 37.547 85.333 84.48v597.333c0 47.147-38.187 85.333-85.333 85.333zM896 148.693h-768v598.613h768v-598.613z" />
<glyph unicode="&#xf055;" d="M810.667 789.333h-170.667l-336.853-538.88-111.147 197.547 192 341.333h-170.667l-192-341.333 192-341.333h170.667l336.853 538.88 111.147-197.547-192-341.333h170.667l192 341.333z" />
<glyph unicode="&#xf056;" d="M810.667 618.667h-597.333c-70.613 0-128-57.387-128-128v-256h170.667v-170.667h512v170.667h170.667v256c0 70.613-57.387 128-128 128zM682.667 149.333h-341.333v213.333h341.333v-213.333zM810.667 448c-23.68 0-42.667 18.987-42.667 42.667s18.987 42.667 42.667 42.667c23.68 0 42.667-18.987 42.667-42.667s-18.987-42.667-42.667-42.667zM768 832h-512v-170.667h512v170.667z" />
<glyph unicode="&#xf057;" d="M511.787 874.667c-235.733 0-426.453-190.933-426.453-426.667s190.72-426.667 426.453-426.667c235.733 0 426.88 190.933 426.88 426.667s-191.147 426.667-426.88 426.667zM512 106.667c-188.587 0-341.333 152.747-341.333 341.333s152.747 341.333 341.333 341.333 341.333-152.747 341.333-341.333-152.747-341.333-341.333-341.333zM533.333 661.333h-64v-256l223.787-134.4 32.213 52.48-192 113.92z" />
<glyph unicode="&#xf058;" d="M896 704h-85.333v-384h-554.667v-85.333c0-23.467 19.2-42.667 42.667-42.667h469.333l170.667-170.667v640c0 23.467-19.2 42.667-42.667 42.667zM725.333 448v384c0 23.467-19.2 42.667-42.667 42.667h-554.667c-23.467 0-42.667-19.2-42.667-42.667v-597.333l170.667 170.667h426.667c23.467 0 42.667 19.2 42.667 42.667z" />
<glyph unicode="&#xf059;" d="M768 234.667h-512v85.333h512v-85.333zM768 405.333h-512v85.333h512v-85.333zM768 576h-512v85.333h512v-85.333zM128 21.333l64 64 64-64 64 64 64-64 64 64 64-64 64 64 64-64 64 64 64-64 64 64 64-64v853.333l-64-64-64 64-64-64-64 64-64-64-64 64-64-64-64 64-64-64-64 64-64-64-64 64v-853.333z" />
<glyph unicode="&#xf05a;" d="M853.333 704h-93.227c4.693 13.44 7.893 27.52 7.893 42.667 0 70.613-57.387 128-128 128-44.587 0-83.84-22.827-106.667-57.387l-21.333-29.013-21.333 29.013c-22.827 34.56-62.080 57.387-106.667 57.387-70.613 0-128-57.387-128-128 0-15.147 2.987-29.227 7.893-42.667h-93.227c-47.147 0-84.907-38.187-84.907-85.333l-0.427-469.333c0-47.147 38.187-85.333 85.333-85.333h682.667c47.147 0 85.333 38.187 85.333 85.333v469.333c0 47.147-38.187 85.333-85.333 85.333zM640 789.333c23.467 0 42.667-19.2 42.667-42.667s-19.2-42.667-42.667-42.667-42.667 19.2-42.667 42.667 19.2 42.667 42.667 42.667zM384 789.333c23.467 0 42.667-19.2 42.667-42.667s-19.2-42.667-42.667-42.667-42.667 19.2-42.667 42.667 19.2 42.667 42.667 42.667zM853.333 149.333h-682.667v85.333h682.667v-85.333zM853.333 362.667h-682.667v256h216.747l-88.747-120.96 69.333-49.707 144 196.053 42.667-58.027 101.333-138.027 69.333 49.707-88.747 120.96h216.747v-256z" />
<glyph unicode="&#xf05b;" d="M42.667 64h938.667l-469.333 810.667-469.333-810.667zM554.667 192h-85.333v85.333h85.333v-85.333zM554.667 362.667h-85.333v170.667h85.333v-170.667z" />
<glyph unicode="&#xf05c;" d="M554.453 832c-212.267 0-383.787-171.947-383.787-384h-128l166.187-166.187 2.987-6.187 172.16 172.373h-128c0 164.907 133.76 298.667 298.667 298.667s298.667-133.76 298.667-298.667-133.76-298.667-298.667-298.667c-82.56 0-157.013 33.707-210.987 87.68l-60.373-60.373c69.333-69.547 165.12-112.64 271.147-112.64 212.267 0 384.213 171.947 384.213 384s-171.947 384-384.213 384zM512 618.667v-213.333l182.613-108.373 30.72 51.84-149.333 88.533v181.333h-64z" />
<glyph unicode="&#xf05d;" d="M512 874.667c-164.907 0-298.667-133.76-298.667-298.667 0-224 298.667-554.667 298.667-554.667s298.667 330.667 298.667 554.667c0 164.907-133.76 298.667-298.667 298.667zM512 469.333c-58.88 0-106.667 47.787-106.667 106.667s47.787 106.667 106.667 106.667 106.667-47.787 106.667-106.667-47.787-106.667-106.667-106.667z" />
<glyph unicode="&#xf05e;" d="M511.787 874.667c-235.733 0-426.453-190.933-426.453-426.667s190.72-426.667 426.453-426.667c235.733 0 426.88 190.933 426.88 426.667s-191.147 426.667-426.88 426.667zM512 106.667c-188.587 0-341.333 152.747-341.333 341.333s152.747 341.333 341.333 341.333 341.333-152.747 341.333-341.333-152.747-341.333-341.333-341.333zM533.333 661.333h-64v-256l223.787-134.4 32.213 52.48-192 113.92z" />
<glyph unicode="&#xf05f;" d="M661.333 362.667h-33.92l-11.733 11.733c41.813 48.427 66.987 111.36 66.987 180.267 0 153.173-124.16 277.333-277.333 277.333s-277.333-124.16-277.333-277.333 124.16-277.333 277.333-277.333c68.907 0 131.84 25.173 180.267 66.773l11.733-11.733v-33.707l213.333-212.907 63.573 63.573-212.907 213.333zM405.333 362.667c-106.027 0-192 85.973-192 192s85.973 192 192 192 192-85.973 192-192-85.973-192-192-192z" />
<glyph unicode="&#xf060;" d="M829.013 406.4c1.707 13.653 2.987 27.52 2.987 41.6s-1.28 27.947-2.987 41.6l90.24 70.613c8.107 6.4 10.453 17.92 5.12 27.307l-85.333 147.84c-5.333 9.173-16.427 13.013-26.027 9.173l-106.24-42.88c-21.973 16.853-46.080 31.147-72.107 42.027l-16 113.067c-1.92 10.027-10.667 17.92-21.333 17.92h-170.667c-10.667 0-19.413-7.893-21.12-17.92l-16-113.067c-26.027-10.88-50.133-24.96-72.107-42.027l-106.24 42.88c-9.6 3.627-20.693 0-26.027-9.173l-85.333-147.84c-5.333-9.173-2.987-20.693 5.12-27.307l90.027-70.613c-1.707-13.653-2.987-27.52-2.987-41.6s1.28-27.947 2.987-41.6l-90.027-70.613c-8.107-6.4-10.453-17.92-5.12-27.307l85.333-147.84c5.333-9.173 16.427-13.013 26.027-9.173l106.24 42.88c21.973-16.853 46.080-31.147 72.107-42.027l16-113.067c1.707-10.027 10.453-17.92 21.12-17.92h170.667c10.667 0 19.413 7.893 21.12 17.92l16 113.067c26.027 10.88 50.133 24.96 72.107 42.027l106.24-42.88c9.6-3.627 20.693 0 26.027 9.173l85.333 147.84c5.333 9.173 2.987 20.693-5.12 27.307l-90.027 70.613zM512 298.667c-82.56 0-149.333 66.773-149.333 149.333s66.773 149.333 149.333 149.333 149.333-66.773 149.333-149.333-66.773-149.333-149.333-149.333z" />
<glyph unicode="&#xf061;" d="M512 533.333c-47.147 0-85.333-38.187-85.333-85.333s38.187-85.333 85.333-85.333 85.333 38.187 85.333 85.333-38.187 85.333-85.333 85.333zM810.667 832h-597.333c-47.147 0-85.333-38.187-85.333-85.333v-597.333c0-47.147 38.187-85.333 85.333-85.333h597.333c47.147 0 85.333 38.187 85.333 85.333v597.333c0 47.147-38.187 85.333-85.333 85.333zM736 448c0-9.813-0.853-19.627-2.133-29.227l63.147-49.493c5.547-4.48 7.253-12.587 3.413-18.987l-59.733-103.467c-3.627-6.4-11.52-8.96-18.347-6.4l-74.453 30.080c-15.36-11.947-32.213-21.76-50.56-29.44l-11.093-79.147c-0.853-7.040-7.040-12.587-14.507-12.587h-119.467c-7.467 0-13.653 5.547-14.72 12.587l-11.093 79.147c-18.133 7.467-34.987 17.493-50.56 29.44l-74.24-29.867c-6.827-2.56-14.507 0-18.347 6.4l-59.733 103.467c-3.84 6.4-2.133 14.507 3.413 18.987l63.147 49.28c-1.28 9.6-2.133 19.2-2.133 29.227 0 9.813 0.853 19.627 2.133 29.227l-63.147 49.28c-5.547 4.48-7.253 12.587-3.413 18.987l59.733 103.467c3.84 6.4 11.52 8.96 18.347 6.4l74.24-29.867c15.36 11.733 32.213 21.76 50.56 29.44l11.093 79.147c1.067 7.040 7.253 12.587 14.72 12.587h119.467c7.467 0 13.653-5.547 14.72-12.587l11.093-79.147c18.133-7.467 34.987-17.493 50.56-29.44l74.24 29.867c6.827 2.56 14.507 0 18.347-6.4l59.733-103.467c3.84-6.4 2.133-14.507-3.413-18.987l-63.147-49.493c1.28-9.387 2.133-19.2 2.133-29.013z" />
<glyph unicode="&#xf062;" d="M597.333 448c0 47.147-38.187 85.333-85.333 85.333s-85.333-38.187-85.333-85.333 38.187-85.333 85.333-85.333 85.333 38.187 85.333 85.333zM512 832c-212.053 0-384-171.947-384-384h-128l170.667-170.667 170.667 170.667h-128c0 164.907 133.76 298.667 298.667 298.667s298.667-133.76 298.667-298.667-133.76-298.667-298.667-298.667c-64.64 0-124.16 20.693-173.227 55.68l-60.373-61.227c64.853-49.92 145.707-79.787 233.6-79.787 212.053 0 384 171.947 384 384s-171.947 384-384 384z" />
<glyph unicode="&#xf063;" d="M469.333-64h85.333v85.333h-85.333v-85.333zM298.667-64h85.333v85.333h-85.333v-85.333zM640-64h85.333v85.333h-85.333v-85.333zM755.413 716.587l-243.413 243.413h-42.667v-323.627l-195.627 195.627-60.373-60.373 238.293-238.293-238.293-238.293 60.373-60.373 195.627 195.627v-323.627h42.667l243.413 243.413-183.040 183.253 183.040 183.253zM554.667 796.587l80.213-80.213-80.213-80v160.213zM634.88 350.080l-80.213-80v160.213l80.213-80.213z" />
<glyph unicode="&#xf064;" d="M298.667-64h85.333v85.333h-85.333v-85.333zM469.333-64h85.333v85.333h-85.333v-85.333zM640-64h85.333v85.333h-85.333v-85.333zM682.667 959.573l-341.333 0.427c-47.147 0-85.333-38.187-85.333-85.333v-682.667c0-47.147 38.187-85.333 85.333-85.333h341.333c47.147 0 85.333 38.187 85.333 85.333v682.667c0 47.147-38.187 84.907-85.333 84.907zM682.667 277.333h-341.333v512h341.333v-512z" />
<glyph unicode="&#xf065;" d="M896 832h-768c-47.147 0-85.333-38.187-85.333-85.333v-597.333c0-47.147 38.187-85.333 85.333-85.333h768c47.147 0 85.333 38.187 85.333 85.333v597.333c0 47.147-38.187 85.333-85.333 85.333zM896 148.693h-768v598.613h768v-598.613zM341.333 277.333h106.667l64-64 64 64h106.667v106.667l64 64-64 64v106.667h-106.667l-64 64-64-64h-106.667v-106.667l-64-64 64-64v-106.667zM512 576c70.613 0 128-57.387 128-128s-57.387-128-128-128v256z" />
<glyph unicode="&#xf066;" d="M331.52 671.573l-65.707 54.4-230.827-277.973 230.827-278.187 65.707 54.4-185.6 223.787 185.6 223.573zM298.667 405.333h85.333v85.333h-85.333v-85.333zM725.333 490.667h-85.333v-85.333h85.333v85.333zM469.333 405.333h85.333v85.333h-85.333v-85.333zM758.187 726.187l-65.707-54.4 185.6-223.787-185.6-223.573 65.707-54.4 230.827 277.973-230.827 278.187z" />
<glyph unicode="&#xf067;" d="M512 746.667c-164.907 0-298.667-133.76-298.667-298.667h85.333c0 117.76 95.573 213.333 213.333 213.333s213.333-95.573 213.333-213.333h85.333c0 164.907-133.76 298.667-298.667 298.667zM554.667 350.293c37.547 16.427 64 53.973 64 97.707 0 58.88-47.787 106.667-106.667 106.667s-106.667-47.787-106.667-106.667c0-43.733 26.453-81.28 64-97.707v-140.587l-145.707-145.707 60.373-60.373 128 128 128-128 60.373 60.373-145.707 145.707v140.587zM512 917.333c-259.2 0-469.333-210.133-469.333-469.333h85.333c0 212.053 171.947 384 384 384s384-171.947 384-384h85.333c0 259.2-210.133 469.333-469.333 469.333z" />
<glyph unicode="&#xf068;" d="M213.333 874.667c0 23.467-18.987 42.667-42.667 42.667s-42.667-19.2-42.667-42.667v-170.667h-85.333v-256h256v256h-85.333v170.667zM384 277.333c0-55.68 35.84-102.613 85.333-120.107v-178.56h85.333v178.56c49.493 17.707 85.333 64.427 85.333 120.107v85.333h-256v-85.333zM42.667 277.333c0-55.68 35.84-102.613 85.333-120.107v-178.56h85.333v178.56c49.493 17.707 85.333 64.427 85.333 120.107v85.333h-256v-85.333zM896 704v170.667c0 23.467-18.987 42.667-42.667 42.667s-42.667-19.2-42.667-42.667v-170.667h-85.333v-256h256v256h-85.333zM554.667 874.667c0 23.467-18.987 42.667-42.667 42.667s-42.667-19.2-42.667-42.667v-170.667h-85.333v-256h256v256h-85.333v170.667zM725.333 277.333c0-55.68 35.84-102.613 85.333-120.107v-178.56h85.333v178.56c49.493 17.707 85.333 64.427 85.333 120.107v85.333h-256v-85.333z" />
<glyph unicode="&#xf069;" d="M213.333 874.667c0 23.467-18.987 42.667-42.667 42.667s-42.667-19.2-42.667-42.667v-170.667h-85.333v-256h256v256h-85.333v170.667zM384 277.333c0-55.68 35.84-102.613 85.333-120.107v-178.56h85.333v178.56c49.493 17.707 85.333 64.427 85.333 120.107v85.333h-256v-85.333zM42.667 277.333c0-55.68 35.84-102.613 85.333-120.107v-178.56h85.333v178.56c49.493 17.707 85.333 64.427 85.333 120.107v85.333h-256v-85.333zM896 704v170.667c0 23.467-18.987 42.667-42.667 42.667s-42.667-19.2-42.667-42.667v-170.667h-85.333v-256h256v256h-85.333zM554.667 874.667c0 23.467-18.987 42.667-42.667 42.667s-42.667-19.2-42.667-42.667v-170.667h-85.333v-256h256v256h-85.333v170.667zM725.333 277.333c0-55.68 35.84-102.613 85.333-120.107v-178.56h85.333v178.56c49.493 17.707 85.333 64.427 85.333 120.107v85.333h-256v-85.333z" />
<glyph unicode="&#xf06a;" d="M768 661.333v128c0 47.147-38.187 85.333-85.333 85.333h-341.333c-47.147 0-85.333-38.187-85.333-85.333v-128h-42.667v-256l128-256v-128h341.333v128l128 256v256h-42.667zM341.333 789.333h341.333v-128h-85.333v85.333h-42.667v-85.333h-85.333v85.333h-42.667v-85.333h-85.333v128z" />
<glyph unicode="&#xf06b;" d="M341.333 469.333c0 35.413-28.587 64-64 64s-64-28.587-64-64 28.587-64 64-64 64 28.587 64 64zM640 682.667c0 35.413-28.587 64-64 64h-128c-35.413 0-64-28.587-64-64s28.587-64 64-64h128c35.413 0 64 28.587 64 64zM362.667 320c-35.413 0-64-28.587-64-64s28.587-64 64-64 64 28.587 64 64-28.587 64-64 64zM512 917.333c-258.773 0-469.333-210.56-469.333-469.333s210.56-469.333 469.333-469.333 469.333 210.56 469.333 469.333-210.56 469.333-469.333 469.333zM512 64c-211.84 0-384 172.373-384 384s172.16 384 384 384 384-172.373 384-384-172.16-384-384-384zM746.667 533.333c-35.413 0-64-28.587-64-64s28.587-64 64-64 64 28.587 64 64-28.587 64-64 64zM661.333 320c-35.413 0-64-28.587-64-64s28.587-64 64-64 64 28.587 64 64-28.587 64-64 64z" />
<glyph unicode="&#xf06c;" d="M512.213 725.333l-85.547-106.667h170.667l-85.12 106.667zM768 533.333v-170.667l106.667 85.12-106.667 85.547zM256 533.333l-106.667-85.547 106.667-85.12v170.667zM597.333 277.333h-170.667l85.547-106.667 85.12 106.667zM896 832h-768c-47.147 0-85.333-38.187-85.333-85.333v-597.333c0-47.147 38.187-85.333 85.333-85.333h768c47.147 0 85.333 38.187 85.333 85.333v597.333c0 47.147-38.187 85.333-85.333 85.333zM896 148.693h-768v598.613h768v-598.613z" />
<glyph unicode="&#xf06d;" d="M554.667 576h-85.333v-85.333h85.333v85.333zM725.333 576h-85.333v-85.333h85.333v85.333zM853.333 298.667c-53.12 0-104.32 8.533-152.32 24.32-14.72 4.693-31.573 1.28-43.307-10.453l-93.867-94.080c-120.96 61.44-219.52 160.213-281.173 280.96l93.867 94.080c11.733 11.733 15.147 28.587 10.453 43.307-15.787 48-24.32 99.413-24.32 152.533 0 23.68-18.987 42.667-42.667 42.667h-149.333c-23.68 0-42.667-18.987-42.667-42.667 0-400.64 324.693-725.333 725.333-725.333 23.68 0 42.667 18.987 42.667 42.667v149.333c0 23.68-18.987 42.667-42.667 42.667zM810.667 576v-85.333h85.333v85.333h-85.333z" />
<glyph unicode="&#xf06e;" d="M298.667-64h85.333v85.333h-85.333v-85.333zM469.333-64h85.333v85.333h-85.333v-85.333zM554.667 874.667h-85.333v-426.667h85.333v426.667zM706.773 770.773l-61.653-61.653c73.6-45.013 122.88-125.867 122.88-218.453 0-141.44-114.56-256-256-256s-256 114.56-256 256c0 92.587 49.28 173.44 122.88 218.453l-61.653 61.653c-88.533-61.653-146.56-164.053-146.56-280.107 0-188.587 152.747-341.333 341.333-341.333s341.333 152.747 341.333 341.333c0 116.053-58.027 218.453-146.56 280.107zM640-64h85.333v85.333h-85.333v-85.333z" />
<glyph unicode="&#xf06f;" d="M640 576h-256c-23.68 0-42.667-19.2-42.667-42.667v-512c0-23.467 18.987-42.667 42.667-42.667h256c23.68 0 42.667 19.2 42.667 42.667v512c0 23.467-18.987 42.667-42.667 42.667zM512 320c-47.147 0-85.333 38.187-85.333 85.333s38.187 85.333 85.333 85.333 85.333-38.187 85.333-85.333-38.187-85.333-85.333-85.333zM300.8 701.867l60.373-60.373c38.613 38.613 91.947 62.507 150.827 62.507s112.213-23.893 150.827-62.507l60.373 60.373c-53.973 53.973-128.64 87.467-211.2 87.467s-157.227-33.493-211.2-87.467zM512 960c-129.493 0-246.827-52.48-331.947-137.387l60.373-60.373c69.547 69.547 165.547 112.427 271.573 112.427s202.027-42.88 271.573-112.427l60.373 60.373c-85.12 84.907-202.453 137.387-331.947 137.387z" />
<glyph unicode="&#xf070;" d="M298.667-64h85.333v85.333h-85.333v-85.333zM512 405.333c70.613 0 127.573 57.387 127.573 128l0.427 256c0 70.827-57.173 128-128 128-70.613 0-128-57.173-128-128v-256c0-70.613 57.387-128 128-128zM469.333-64h85.333v85.333h-85.333v-85.333zM640-64h85.333v85.333h-85.333v-85.333zM810.667 533.333h-72.533c0-128-108.16-217.6-226.133-217.6-117.76 0-226.133 89.6-226.133 217.6h-72.533c0-145.707 116.053-266.027 256-286.72v-139.947h85.333v139.947c139.947 20.693 256 141.013 256 286.72z" />
<glyph unicode="&#xf071;" d="M682.667 704v85.333c0 47.147-38.187 85.333-85.333 85.333h-170.667c-47.147 0-85.333-38.187-85.333-85.333v-85.333h-256v-554.667c0-47.147 38.187-85.333 85.333-85.333h682.667c47.147 0 85.333 38.187 85.333 85.333v554.667h-256zM426.667 789.333h170.667v-85.333h-170.667v85.333zM384 192v384l320-170.667-320-213.333z" />
<glyph unicode="&#xf072;" d="M734.293 576l-186.88 279.68c-8.107 12.373-21.76 18.133-35.413 18.133s-27.307-5.973-35.413-18.133l-186.88-279.68h-204.373c-23.467 0-42.667-19.2-42.667-42.667 0-4.053 0.64-7.893 1.493-11.52l108.16-395.52c10.027-35.84 43.093-62.293 82.347-62.293h554.667c39.253 0 72.32 26.453 82.133 62.507l108.16 395.52c1.067 3.413 1.707 7.253 1.707 11.307 0 23.467-19.2 42.667-42.667 42.667h-204.373zM384 576l128 187.733 128-187.733h-256zM512 234.667c-47.147 0-85.333 38.187-85.333 85.333s38.187 85.333 85.333 85.333 85.333-38.187 85.333-85.333-38.187-85.333-85.333-85.333z" />
<glyph unicode="&#xf073;" d="M298.667 192c-47.147 0-84.907-38.187-84.907-85.333s37.76-85.333 84.907-85.333 85.333 38.187 85.333 85.333-38.187 85.333-85.333 85.333zM42.667 874.667v-85.333h85.333l153.387-323.627-57.6-104.533c-6.613-12.373-10.453-26.24-10.453-41.173 0-47.147 38.187-85.333 85.333-85.333h512v85.333h-493.867c-5.973 0-10.667 4.693-10.667 10.667 0 1.92 0.427 3.627 1.28 5.12l38.187 69.547h317.867c32 0 59.947 17.707 74.667 43.947l152.533 276.907c3.413 5.973 5.333 13.013 5.333 20.48 0 23.68-19.2 42.667-42.667 42.667h-630.827l-40.533 85.333h-139.307zM725.333 192c-47.147 0-84.907-38.187-84.907-85.333s37.76-85.333 84.907-85.333 85.333 38.187 85.333 85.333-38.187 85.333-85.333 85.333z" />
<glyph unicode="&#xf074;" d="M768 746.667v85.333c0 47.147-38.187 85.333-85.333 85.333h-170.667c-47.147 0-85.333-38.187-85.333-85.333v-85.333h-213.333v-469.333c0-47.147 38.187-85.333 85.333-85.333h597.333c47.147 0 85.333 38.187 85.333 85.333v469.333h-213.333zM512 832h170.667v-85.333h-170.667v85.333zM512 320v298.667l234.667-128-234.667-170.667zM128 576h-85.333v-469.333c0-47.147 38.187-85.333 85.333-85.333h597.333c47.147 0 85.333 38.187 85.333 85.333h-682.667v469.333z" />
<glyph unicode="&#xf075;" d="M853.333 874.667h-682.667c-47.147 0-84.907-38.187-84.907-85.333l-0.427-768 170.667 170.667h597.333c47.147 0 85.333 38.187 85.333 85.333v512c0 47.147-38.187 85.333-85.333 85.333zM341.333 362.667h-85.333v85.333h85.333v-85.333zM341.333 490.667h-85.333v85.333h85.333v-85.333zM341.333 618.667h-85.333v85.333h85.333v-85.333zM640 362.667h-213.333v85.333h213.333v-85.333zM768 490.667h-341.333v85.333h341.333v-85.333zM768 618.667h-341.333v85.333h341.333v-85.333z" />
<glyph unicode="&#xf076;" d="M530.987 277.333h89.173l-217.813 554.667h-79.147l-218.027-554.667h89.173l48 128h240.853l47.787-128zM274.347 490.667l88.32 235.733 88.32-235.733h-176.64zM920.96 465.707l-344.96-344.96-156.587 156.587-60.373-60.373 216.96-216.96 405.333 405.333-60.373 60.373z" />
<glyph unicode="&#xf077;" d="M512 349.867l158.293-115.2-60.587 186.027 158.293 112.64h-194.133l-61.867 192-61.867-192h-194.133l158.293-112.64-60.373-186.027z" />
<glyph unicode="&#xf078;" d="M511.787 874.667c-235.733 0-426.453-190.933-426.453-426.667s190.72-426.667 426.453-426.667c235.733 0 426.88 190.933 426.88 426.667s-191.147 426.667-426.88 426.667zM692.48 192l-180.48 108.8-180.48-108.8 47.787 205.227-159.147 138.027 209.92 17.92 81.92 193.493 81.92-193.493 209.92-17.92-159.147-138.027 47.787-205.227z" />
<glyph unicode="&#xf079;" d="M853.333 789.333h-682.667v-85.333h682.667v85.333zM896 362.667v85.333l-42.667 213.333h-682.667l-42.667-213.333v-85.333h42.667v-256h426.667v256h170.667v-256h85.333v256h42.667zM512 192h-256v170.667h256v-170.667z" />
<glyph unicode="&#xf07a;" d="M597.333 234.667h-426.667v-85.333h426.667v85.333zM853.333 576h-682.667v-85.333h682.667v85.333zM170.667 320h682.667v85.333h-682.667v-85.333zM170.667 746.667v-85.333h682.667v85.333h-682.667z" />
<glyph unicode="&#xf07b;" d="M298.24 490.667l-170.24-170.667 170.24-170.667v128h299.093v85.333h-299.093v128zM896 576l-170.24 170.667v-128h-299.093v-85.333h299.093v-128l170.24 170.667z" />
<glyph unicode="&#xf07c;" d="M682.667 234.24v299.093h-85.333v-299.093h-128l170.667-170.24 170.667 170.24h-128zM384 832l-170.667-170.24h128v-299.093h85.333v299.093h128l-170.667 170.24z" />
<glyph unicode="&#xf07d;" d="M512 874.667c-235.733 0-426.667-190.933-426.667-426.667s190.933-426.667 426.667-426.667 426.667 190.933 426.667 426.667-190.933 426.667-426.667 426.667zM277.333 576l149.333 149.333 149.333-149.333h-106.667v-170.667h-85.333v170.667h-106.667zM746.667 320l-149.333-149.333-149.333 149.333h106.667v170.667h85.333v-170.667h106.667z" />
<glyph unicode="&#xf07e;" d="M512 266.667l170.667 170.667h-128v384h-85.333v-384h-128l170.667-170.667zM896 821.333h-256v-84.693h256v-598.613h-768v598.613h256v84.693h-256c-47.147 0-85.333-38.187-85.333-85.333v-597.333c0-47.147 38.187-85.333 85.333-85.333h768c47.147 0 85.333 38.187 85.333 85.333v597.333c0 47.147-38.187 85.333-85.333 85.333z" />
<glyph unicode="&#xf07f;" d="M896 832h-768c-47.147 0-85.333-38.187-85.333-85.333v-597.333c0-47.147 38.187-85.333 85.333-85.333h768c47.147 0 85.333 38.187 85.333 85.333v597.333c0 47.147-38.187 85.333-85.333 85.333zM896 149.333h-768v597.333h426.667v-170.667h341.333v-426.667z" />
<glyph unicode="&#xf080;" d="M42.667 576h85.333v85.333h-85.333v-85.333zM42.667 405.333h85.333v85.333h-85.333v-85.333zM42.667 746.667h85.333v85.333c-47.147 0-85.333-38.187-85.333-85.333zM384 64h85.333v85.333h-85.333v-85.333zM42.667 234.667h85.333v85.333h-85.333v-85.333zM128 64v85.333h-85.333c0-47.147 38.187-85.333 85.333-85.333zM896 832h-341.333v-256h426.667v170.667c0 47.147-38.187 85.333-85.333 85.333zM896 234.667h85.333v85.333h-85.333v-85.333zM384 746.667h85.333v85.333h-85.333v-85.333zM213.333 64h85.333v85.333h-85.333v-85.333zM213.333 746.667h85.333v85.333h-85.333v-85.333zM896 64c47.147 0 85.333 38.187 85.333 85.333h-85.333v-85.333zM896 405.333h85.333v85.333h-85.333v-85.333zM554.667 64h85.333v85.333h-85.333v-85.333zM725.333 64h85.333v85.333h-85.333v-85.333z" />
<glyph unicode="&#xf081;" d="M768 832v-85.333h-85.333v85.333h-341.333v-85.333h-85.333v85.333h-85.333v-768h85.333v85.333h85.333v-85.333h341.333v85.333h85.333v-85.333h85.333v768h-85.333zM341.333 234.667h-85.333v85.333h85.333v-85.333zM341.333 405.333h-85.333v85.333h85.333v-85.333zM341.333 576h-85.333v85.333h85.333v-85.333zM768 234.667h-85.333v85.333h85.333v-85.333zM768 405.333h-85.333v85.333h85.333v-85.333zM768 576h-85.333v85.333h85.333v-85.333z" />
<glyph unicode="&#xf082;" d="M640 832h-384c-35.413 0-65.707-21.547-78.507-52.053l-128.64-300.8c-3.84-9.813-6.187-20.267-6.187-31.147v-81.707l0.427-0.427-0.427-3.2c0-47.147 38.187-85.333 85.333-85.333h269.44l-40.747-194.987c-0.853-4.267-1.493-8.747-1.493-13.44 0-17.707 7.253-33.707 18.773-45.227l45.44-45.013 280.96 280.96c15.36 15.573 24.96 36.907 24.96 60.373v426.667c0 47.147-38.187 85.333-85.333 85.333zM810.667 832v-512h170.667v512h-170.667z" />
<glyph unicode="&#xf083;" d="M512 704c0 23.467-19.2 42.667-42.667 42.667h-221.227l28.373 135.467c0.64 3.2 1.067 6.613 1.067 10.027 0 13.227-5.333 25.173-14.080 33.92l-33.92 33.92-210.773-210.773c-11.52-11.52-18.773-27.52-18.773-45.227v-277.333c0-35.413 28.587-64 64-64h288c26.453 0 49.28 16 58.88 39.040l96.64 225.707c2.773 7.253 4.48 14.933 4.48 23.253v53.333zM960 533.333h-288c-26.453 0-49.28-16-58.88-39.040l-96.64-225.707c-2.773-7.253-4.48-14.933-4.48-23.253v-53.333c0-23.467 19.2-42.667 42.667-42.667h221.227l-28.373-135.467c-0.64-3.2-1.067-6.613-1.067-10.027 0-13.227 5.333-25.173 14.080-33.92l33.92-33.92 210.773 210.773c11.52 11.52 18.773 27.52 18.773 45.227v277.333c0 35.413-28.587 64-64 64z" />
<glyph unicode="&#xf084;" d="M42.667 64h170.667v512h-170.667v-512zM981.333 533.333c0 47.147-38.187 85.333-85.333 85.333h-269.44l40.747 194.987c0.853 4.267 1.493 8.747 1.493 13.44 0 17.707-7.253 33.707-18.773 45.227l-45.44 45.013-280.96-280.96c-15.36-15.573-24.96-36.907-24.96-60.373v-426.667c0-47.147 38.187-85.333 85.333-85.333h384c35.413 0 65.707 21.547 78.507 52.053l128.64 300.8c3.84 9.813 6.187 20.267 6.187 31.147v81.707l-0.427 0.427 0.427 3.2z" />
<glyph unicode="&#xf085;" d="M128 576h597.333v85.333h-597.333v-85.333zM128 405.333h597.333v85.333h-597.333v-85.333zM128 234.667h597.333v85.333h-597.333v-85.333zM810.667 234.667h85.333v85.333h-85.333v-85.333zM810.667 661.333v-85.333h85.333v85.333h-85.333zM810.667 405.333h85.333v85.333h-85.333v-85.333z" />
<glyph unicode="&#xf086;" d="M810.667 832h-42.667v85.333h-85.333v-85.333h-341.333v85.333h-85.333v-85.333h-42.667c-47.147 0-84.907-38.187-84.907-85.333l-0.427-597.333c0-47.147 38.187-85.333 85.333-85.333h597.333c47.147 0 85.333 38.187 85.333 85.333v597.333c0 47.147-38.187 85.333-85.333 85.333zM810.667 149.333h-597.333v469.333h597.333v-469.333zM298.667 533.333h213.333v-213.333h-213.333z" />
<glyph unicode="&#xf087;" d="M813.653 749.653l-60.373-60.373c61.867-61.653 100.053-146.987 100.053-241.28 0-188.587-152.747-341.333-341.333-341.333s-341.333 152.747-341.333 341.333c0 174.080 130.347 317.44 298.667 338.347v-86.187c-120.96-20.267-213.333-125.44-213.333-252.16 0-141.44 114.56-256 256-256s256 114.56 256 256c0 70.613-28.587 134.613-74.88 181.12l-60.373-60.373c30.72-30.933 49.92-73.6 49.92-120.747 0-94.293-76.373-170.667-170.667-170.667s-170.667 76.373-170.667 170.667c0 79.36 54.613 145.707 128 164.693v-91.093c-25.387-14.72-42.667-42.027-42.667-73.6 0-47.147 38.187-85.333 85.333-85.333s85.333 38.187 85.333 85.333c0 31.573-17.28 58.667-42.667 73.6v353.067h-42.667c-235.733 0-426.667-190.933-426.667-426.667 0-235.52 190.933-426.667 426.667-426.667 235.52 0 426.667 191.147 426.667 426.667 0 117.76-47.787 224.427-125.013 301.653z" />
<glyph unicode="&#xf088;" d="M549.12 316.8l-108.373 107.093 1.28 1.28c74.24 82.773 127.147 177.92 158.293 278.613h125.013v85.547h-298.667v85.333h-85.333v-85.333h-298.667v-84.907h476.587c-28.8-82.347-73.813-160.427-135.253-228.693-39.68 44.16-72.533 92.16-98.56 142.933h-85.333c31.147-69.547 73.813-135.253 127.147-194.56l-216.96-214.4 60.373-60.373 213.333 213.333 132.693-132.693 32.427 86.827zM789.333 533.333h-85.333l-192-512h85.333l48 128h202.667l48-128h85.333l-192 512zM677.333 234.667l69.333 184.96 69.333-184.96h-138.667z" />
<glyph unicode="&#xf089;" d="M682.667 192l97.92 97.92-208.213 208-170.667-170.667-316.373 316.373 60.373 60.373 256-256 170.667 170.667 268.373-268.587 97.92 97.92v-256z" />
<glyph unicode="&#xf08a;" d="M938.667 448l-170.667 170.667v-128h-640v-85.333h640v-128z" />
<glyph unicode="&#xf08b;" d="M682.667 704l97.92-97.92-208.213-208-170.667 170.667-316.373-316.373 60.373-60.373 256 256 170.667-170.667 268.373 268.587 97.92-97.92v256z" />
<glyph unicode="&#xf08c;" d="M725.333 832h-426.667c-47.147 0-84.907-38.187-84.907-85.333l-0.427-682.667 298.667 128 298.667-128v682.667c0 47.147-38.187 85.333-85.333 85.333z" />
<glyph unicode="&#xf08d;" d="M725.333 832h-426.667c-47.147 0-84.907-38.187-84.907-85.333l-0.427-682.667 298.667 128 298.667-128v682.667c0 47.147-38.187 85.333-85.333 85.333zM725.333 192l-213.333 92.8-213.333-92.8v554.667h426.667v-554.667z" />
<glyph unicode="&#xf08e;" d="M512 917.333l-384-170.667v-256c0-237.013 163.627-458.027 384-512 220.373 53.973 384 274.987 384 512v256l-384 170.667zM426.667 234.667l-170.667 170.667 60.373 60.373 110.293-110.293 280.96 280.96 60.373-60.373-341.333-341.333z" />
<glyph unicode="&#xf08f;" d="M853.333 405.333h-725.333c-23.467 0-42.667-19.2-42.667-42.667v-256c0-23.467 19.2-42.667 42.667-42.667h725.333c23.467 0 42.667 19.2 42.667 42.667v256c0 23.467-19.2 42.667-42.667 42.667zM853.333 832h-725.333c-23.467 0-42.667-19.2-42.667-42.667v-256c0-23.467 19.2-42.667 42.667-42.667h725.333c23.467 0 42.667 19.2 42.667 42.667v256c0 23.467-19.2 42.667-42.667 42.667z" />
<glyph unicode="&#xf090;" d="M170.667 192h128v554.667h-128v-554.667zM768 746.667v-554.667h128v554.667h-128zM341.333 192h384v554.667h-384v-554.667z" />
<glyph unicode="&#xf091;" d="M298.667 149.333h426.667v640h-426.667v-640zM85.333 234.667h170.667v469.333h-170.667v-469.333zM768 704v-469.333h170.667v469.333h-170.667z" />
<glyph unicode="&#xf092;" d="M426.667 192h213.333v554.667h-213.333v-554.667zM170.667 192h213.333v554.667h-213.333v-554.667zM682.667 746.667v-554.667h213.333v554.667h-213.333z" />
<glyph unicode="&#xf093;" d="M85.333 64h810.667v128h-810.667v-128zM853.333 618.667h-725.333c-23.467 0-42.667-19.2-42.667-42.667v-256c0-23.467 19.2-42.667 42.667-42.667h725.333c23.467 0 42.667 19.2 42.667 42.667v256c0 23.467-19.2 42.667-42.667 42.667zM85.333 832v-128h810.667v128h-810.667z" />
<glyph unicode="&#xf094;" d="M170.667 320h725.333v85.333h-725.333v-85.333zM170.667 149.333h725.333v85.333h-725.333v-85.333zM170.667 490.667h725.333v85.333h-725.333v-85.333zM170.667 746.667v-85.333h725.333v85.333h-725.333z" />
<glyph unicode="&#xf095;" d="M170.667 362.667h170.667v170.667h-170.667v-170.667zM170.667 149.333h170.667v170.667h-170.667v-170.667zM170.667 576h170.667v170.667h-170.667v-170.667zM384 362.667h512v170.667h-512v-170.667zM384 149.333h512v170.667h-512v-170.667zM384 746.667v-170.667h512v170.667h-512z" />
<glyph unicode="&#xf096;" d="M170.667 490.667h213.333v256h-213.333v-256zM170.667 192h213.333v256h-213.333v-256zM426.667 192h213.333v256h-213.333v-256zM682.667 192h213.333v256h-213.333v-256zM426.667 490.667h213.333v256h-213.333v-256zM682.667 746.667v-256h213.333v256h-213.333z" />
<glyph unicode="&#xf097;" d="M426.667 192h213.333v256h-213.333v-256zM170.667 192h213.333v554.667h-213.333v-554.667zM682.667 192h213.333v256h-213.333v-256zM426.667 746.667v-256h469.333v256h-469.333z" />
<glyph unicode="&#xf098;" d="M170.667 192h725.333v256h-725.333v-256zM170.667 746.667v-256h725.333v256h-725.333z" />
<glyph unicode="&#xf099;" d="M256 746.667h-128c-23.467 0-42.667-19.2-42.667-42.667v-512c0-23.467 19.2-42.667 42.667-42.667h128c23.467 0 42.667 19.2 42.667 42.667v512c0 23.467-19.2 42.667-42.667 42.667zM853.333 746.667h-128c-23.467 0-42.667-19.2-42.667-42.667v-512c0-23.467 19.2-42.667 42.667-42.667h128c23.467 0 42.667 19.2 42.667 42.667v512c0 23.467-19.2 42.667-42.667 42.667zM554.667 746.667h-128c-23.467 0-42.667-19.2-42.667-42.667v-512c0-23.467 19.2-42.667 42.667-42.667h128c23.467 0 42.667 19.2 42.667 42.667v512c0 23.467-19.2 42.667-42.667 42.667z" />
<glyph unicode="&#xf09a;" d="M512 768c-213.333 0-395.52-132.693-469.333-320 73.813-187.307 256-320 469.333-320 213.547 0 395.52 132.693 469.333 320-73.813 187.307-255.787 320-469.333 320zM512 234.667c-117.76 0-213.333 95.573-213.333 213.333s95.573 213.333 213.333 213.333 213.333-95.573 213.333-213.333-95.573-213.333-213.333-213.333zM512 576c-70.613 0-128-57.387-128-128s57.387-128 128-128 128 57.387 128 128-57.387 128-128 128z" />
<glyph unicode="&#xf09b;" d="M512 661.333c117.76 0 213.333-95.573 213.333-213.333 0-27.52-5.547-53.76-15.147-77.867l124.8-124.8c64.427 53.76 115.2 123.307 146.56 202.667-74.027 187.307-256 320-469.547 320-59.733 0-116.907-10.667-170.027-29.867l92.16-91.947c24.107 9.387 50.347 15.147 77.867 15.147zM85.333 777.6l116.693-116.693c-70.4-55.040-126.080-128.213-159.36-212.907 73.813-187.307 256-320 469.333-320 66.133 0 129.28 12.8 187.093 36.053l18.133-18.133 124.373-124.587 54.4 54.187-756.267 756.48-54.4-54.4zM321.28 541.867l65.92-65.92c-1.92-9.173-3.2-18.347-3.2-27.947 0-70.613 57.387-128 128-128 9.6 0 18.773 1.28 27.733 3.2l65.92-65.92c-28.373-14.080-59.947-22.613-93.653-22.613-117.76 0-213.333 95.573-213.333 213.333 0 33.707 8.533 65.28 22.613 93.867zM504.96 575.36l134.4-134.4 0.64 7.040c0 70.613-57.387 128-128 128l-7.040-0.64z" />
<glyph unicode="&#xf09c;" d="M853.333 704h-93.227c4.693 13.44 7.893 27.733 7.893 42.667 0 70.613-57.387 128-128 128-44.587 0-83.84-22.827-106.667-57.387l-21.333-29.013-21.333 29.013c-22.827 34.56-62.080 57.387-106.667 57.387-70.613 0-128-57.387-128-128 0-14.933 2.987-29.227 7.893-42.667h-93.227c-47.147 0-84.907-38.187-84.907-85.333l-0.427-469.333c0-47.147 38.187-85.333 85.333-85.333h682.667c47.147 0 85.333 38.187 85.333 85.333v469.333c0 47.147-38.187 85.333-85.333 85.333zM640 789.333c23.467 0 42.667-19.2 42.667-42.667s-19.2-42.667-42.667-42.667-42.667 19.2-42.667 42.667 19.2 42.667 42.667 42.667zM384 789.333c23.467 0 42.667-19.2 42.667-42.667s-19.2-42.667-42.667-42.667-42.667 19.2-42.667 42.667 19.2 42.667 42.667 42.667zM853.333 149.333h-682.667v85.333h682.667v-85.333zM853.333 362.667h-682.667v256h216.747l-88.747-120.96 69.333-49.707 144 196.053 42.667-58.027 101.333-138.027 69.333 49.707-88.747 120.96h216.747v-256z" />
<glyph unicode="&#xf09d;" d="M853.333 874.667h-682.667c-47.147 0-85.333-38.187-85.333-85.333v-469.333c0-47.147 38.187-85.333 85.333-85.333h170.667v-213.333l170.667 85.333 170.667-85.333v213.333h170.667c47.147 0 85.333 38.187 85.333 85.333v469.333c0 47.147-38.187 85.333-85.333 85.333zM853.333 320h-682.667v85.333h682.667v-85.333zM853.333 533.333h-682.667v256h682.667v-256z" />
<glyph unicode="&#xf09e;" d="M853.333 704h-128v85.333c0 47.147-38.187 85.333-85.333 85.333h-256c-47.147 0-85.333-38.187-85.333-85.333v-85.333h-128c-47.147 0-85.333-38.187-85.333-85.333v-469.333c0-47.147 38.187-85.333 85.333-85.333h682.667c47.147 0 85.333 38.187 85.333 85.333v469.333c0 47.147-38.187 85.333-85.333 85.333zM384 789.333h256v-85.333h-256v85.333zM853.333 149.333h-682.667v85.333h682.667v-85.333zM853.333 362.667h-682.667v256h128v-85.333h85.333v85.333h256v-85.333h85.333v85.333h128v-256z" />
<glyph unicode="&#xf09f;" d="M853.333 704h-170.667v85.333c0 47.147-38.187 85.333-85.333 85.333h-170.667c-47.147 0-85.333-38.187-85.333-85.333v-85.333h-170.667c-47.147 0-84.907-38.187-84.907-85.333l-0.427-469.333c0-47.147 38.187-85.333 85.333-85.333h682.667c47.147 0 85.333 38.187 85.333 85.333v469.333c0 47.147-38.187 85.333-85.333 85.333zM597.333 704h-170.667v85.333h170.667v-85.333z" />
<glyph unicode="&#xf0a0;" d="M512 874.667c-235.52 0-426.667-190.933-426.667-426.667s191.147-426.667 426.667-426.667 426.667 190.933 426.667 426.667-191.147 426.667-426.667 426.667zM554.667 234.667h-85.333v85.333h85.333v-85.333zM554.667 405.333h-85.333v256h85.333v-256z" />
<glyph unicode="&#xf0a1;" d="M42.667 64h938.667l-469.333 810.667-469.333-810.667zM554.667 192h-85.333v85.333h85.333v-85.333zM554.667 362.667h-85.333v170.667h85.333v-170.667z" />
<glyph unicode="&#xf0a2;" d="M512 874.667c-235.733 0-426.667-190.933-426.667-426.667s190.933-426.667 426.667-426.667 426.667 190.933 426.667 426.667-190.933 426.667-426.667 426.667zM512 256c-106.027 0-192 85.973-192 192s85.973 192 192 192 192-85.973 192-192-85.973-192-192-192zM512 490.667c-23.467 0-42.667-19.2-42.667-42.667s19.2-42.667 42.667-42.667 42.667 19.2 42.667 42.667-19.2 42.667-42.667 42.667z" />
<glyph unicode="&#xf0a3;" d="M469.333 234.667c0-23.467 19.2-42.667 42.667-42.667s42.667 19.2 42.667 42.667-19.2 42.667-42.667 42.667-42.667-19.2-42.667-42.667zM469.333 832v-170.667h85.333v81.92c144.64-20.693 256-144.853 256-295.253 0-164.907-133.76-298.667-298.667-298.667s-298.667 133.76-298.667 298.667c0 71.68 25.173 137.173 67.2 188.8l231.467-231.467 60.373 60.373-290.133 290.133-0.427-0.853c-93.227-69.973-153.813-181.333-153.813-306.987 0-212.053 171.52-384 383.787-384s384.213 171.947 384.213 384-171.947 384-384.213 384h-42.453zM768 448c0 23.467-19.2 42.667-42.667 42.667s-42.667-19.2-42.667-42.667 19.2-42.667 42.667-42.667 42.667 19.2 42.667 42.667zM256 448c0-23.467 19.2-42.667 42.667-42.667s42.667 19.2 42.667 42.667-19.2 42.667-42.667 42.667-42.667-19.2-42.667-42.667z" />
<glyph unicode="&#xf0a4;" d="M810.667 789.333h-597.333c-47.147 0-85.333-38.187-85.333-85.333v-512c0-47.147 38.187-85.333 85.333-85.333h597.333c47.147 0 85.333 38.187 85.333 85.333v512c0 47.147-38.187 85.333-85.333 85.333zM469.333 490.667h-64v21.333h-85.333v-128h85.333v21.333h64v-42.667c0-23.467-18.987-42.667-42.667-42.667h-128c-23.68 0-42.667 19.2-42.667 42.667v170.667c0 23.467 18.987 42.667 42.667 42.667h128c23.68 0 42.667-19.2 42.667-42.667v-42.667zM768 490.667h-64v21.333h-85.333v-128h85.333v21.333h64v-42.667c0-23.467-18.987-42.667-42.667-42.667h-128c-23.68 0-42.667 19.2-42.667 42.667v170.667c0 23.467 18.987 42.667 42.667 42.667h128c23.68 0 42.667-19.2 42.667-42.667v-42.667z" />
<glyph unicode="&#xf0a5;" d="M426.667 106.667h170.667v682.667h-170.667v-682.667zM170.667 106.667h170.667v341.333h-170.667v-341.333zM682.667 576v-469.333h170.667v469.333h-170.667z" />
<glyph unicode="&#xf0a6;" d="M810.667 832h-597.333c-47.147 0-85.333-38.187-85.333-85.333v-597.333c0-47.147 38.187-85.333 85.333-85.333h597.333c47.147 0 85.333 38.187 85.333 85.333v597.333c0 47.147-38.187 85.333-85.333 85.333zM640 576h-170.667v-85.333h170.667v-85.333h-170.667v-85.333h170.667v-85.333h-256v426.667h256v-85.333z" />
<glyph unicode="&#xf0a7;" d="M170.667 192l362.667 256-362.667 256v-512zM554.667 704v-512l362.667 256-362.667 256z" />
<glyph unicode="&#xf0a8;" d="M469.333 192v512l-362.667-256 362.667-256zM490.667 448l362.667-256v512l-362.667-256z" />
<glyph unicode="&#xf0a9;" d="M640 640v234.667h-256v-234.667l128-128 128 128zM320 576h-234.667v-256h234.667l128 128-128 128zM384 256v-234.667h256v234.667l-128 128-128-128zM704 576l-128-128 128-128h234.667v256h-234.667z" />
<glyph unicode="&#xf0aa;" d="M725.333 106.667c-12.16 0-24.107 2.56-32.64 6.4-30.080 16-51.84 37.76-72.96 101.76-21.973 66.347-62.72 97.707-102.187 128.213-33.707 26.027-68.693 52.907-98.773 107.733-22.4 40.96-34.773 85.547-34.773 125.227 0 119.68 93.653 213.333 213.333 213.333s213.333-93.653 213.333-213.333h85.333c0 167.467-131.2 298.667-298.667 298.667s-298.667-131.2-298.667-298.667c0-53.973 16.213-113.067 45.44-166.4 38.827-70.613 84.693-105.813 121.6-134.4 34.56-26.667 59.52-45.867 73.173-87.253 25.6-77.44 58.667-121.173 116.267-151.467 22.187-10.027 45.653-15.147 70.187-15.147 94.080 0 170.667 76.587 170.667 170.667h-85.333c0-47.147-38.187-85.333-85.333-85.333zM325.76 847.573l-60.373 60.373c-84.907-84.907-137.387-202.24-137.387-331.947s52.48-247.040 137.387-331.947l60.373 60.373c-69.547 69.547-112.427 165.547-112.427 271.573s42.88 202.027 112.427 271.573zM490.667 576c0-58.88 47.787-106.667 106.667-106.667s106.667 47.787 106.667 106.667-47.787 106.667-106.667 106.667-106.667-47.787-106.667-106.667z" />
<glyph unicode="&#xf0ab;" d="M810.667 789.333h-597.333c-47.147 0-85.333-38.187-85.333-85.333v-512c0-47.147 38.187-85.333 85.333-85.333h597.333c47.147 0 85.333 38.187 85.333 85.333v512c0 47.147-38.187 85.333-85.333 85.333zM469.333 320h-64v85.333h-85.333v-85.333h-64v256h64v-106.667h85.333v106.667h64v-256zM768 362.667c0-23.467-18.987-42.667-42.667-42.667h-32v-64h-64v64h-32c-23.68 0-42.667 19.2-42.667 42.667v170.667c0 23.467 18.987 42.667 42.667 42.667h128c23.68 0 42.667-19.2 42.667-42.667v-170.667zM618.667 384h85.333v128h-85.333v-128z" />
<glyph unicode="&#xf0ac;" d="M512 789.333v128l-170.667-170.667 170.667-170.667v128c141.44 0 256-114.56 256-256 0-43.307-10.88-83.84-29.653-119.68l62.293-62.293c33.067 52.907 52.693 114.987 52.693 181.973 0 188.587-152.747 341.333-341.333 341.333zM512 192c-141.44 0-256 114.56-256 256 0 43.307 10.88 83.84 29.653 119.68l-62.293 62.293c-33.067-52.907-52.693-114.987-52.693-181.973 0-188.587 152.747-341.333 341.333-341.333v-128l170.667 170.667-170.667 170.667v-128z" />
<glyph unicode="&#xf0ad;" d="M512 362.667c70.613 0 127.573 57.387 127.573 128l0.427 256c0 70.827-57.173 128-128 128-70.613 0-128-57.173-128-128v-256c0-70.613 57.387-128 128-128zM738.133 490.667c0-128-108.16-217.6-226.133-217.6-117.76 0-226.133 89.6-226.133 217.6h-72.533c0-145.707 116.053-266.027 256-286.72v-139.947h85.333v139.947c139.947 20.693 256 141.013 256 286.72h-72.533z" />
<glyph unicode="&#xf0ae;" d="M512 362.667c70.613 0 127.573 57.387 127.573 128l0.427 256c0 70.827-57.173 128-128 128-70.613 0-128-57.173-128-128v-256c0-70.613 57.387-128 128-128zM460.8 750.933c0 28.16 23.040 51.2 51.2 51.2s51.2-23.040 51.2-51.2l-0.427-264.533c0-28.16-22.827-51.2-50.773-51.2-28.16 0-51.2 23.040-51.2 51.2v264.533zM738.133 490.667c0-128-108.16-217.6-226.133-217.6-117.76 0-226.133 89.6-226.133 217.6h-72.533c0-145.707 116.053-266.027 256-286.72v-139.947h85.333v139.947c139.947 20.693 256 141.013 256 286.72h-72.533z" />
<glyph unicode="&#xf0af;" d="M810.667 490.667h-72.533c0-31.787-6.613-61.227-18.56-87.467l52.48-52.48c24.32 41.6 38.613 89.173 38.613 139.947zM639.36 483.627c0 2.347 0.64 4.693 0.64 7.040v256c0 70.827-57.387 128-128 128s-128-57.173-128-128v-7.893l255.36-255.147zM182.4 832l-54.4-54.4 256.427-256.427v-30.72c0-70.613 56.96-128 127.573-128 9.6 0 18.773 1.28 27.733 3.2l70.827-70.827c-30.507-14.080-64-21.973-98.56-21.973-117.76 0-226.133 89.6-226.133 217.6h-72.533c0-145.707 116.053-266.027 256-286.72v-139.733h85.333v139.947c38.613 5.76 75.307 19.2 108.373 38.613l178.56-178.56 54.4 54.187-713.6 713.813z" />
<glyph unicode="&#xf0b0;" d="M768 789.333l85.333-170.667h-128l-85.333 170.667h-85.333l85.333-170.667h-128l-85.333 170.667h-85.333l85.333-170.667h-128l-85.333 170.667h-42.667c-47.147 0-84.907-38.187-84.907-85.333l-0.427-512c0-47.147 38.187-85.333 85.333-85.333h682.667c47.147 0 85.333 38.187 85.333 85.333v597.333h-170.667z" />
<glyph unicode="&#xf0b1;" d="M170.667 704h-85.333v-597.333c0-47.147 38.187-85.333 85.333-85.333h597.333v85.333h-597.333v597.333zM853.333 874.667h-512c-47.147 0-85.333-38.187-85.333-85.333v-512c0-47.147 38.187-85.333 85.333-85.333h512c47.147 0 85.333 38.187 85.333 85.333v512c0 47.147-38.187 85.333-85.333 85.333zM810.667 490.667h-170.667v-170.667h-85.333v170.667h-170.667v85.333h170.667v170.667h85.333v-170.667h170.667v-85.333z" />
<glyph unicode="&#xf0b2;" d="M170.667 704h-85.333v-597.333c0-47.147 38.187-85.333 85.333-85.333h597.333v85.333h-597.333v597.333zM853.333 874.667h-512c-47.147 0-85.333-38.187-85.333-85.333v-512c0-47.147 38.187-85.333 85.333-85.333h512c47.147 0 85.333 38.187 85.333 85.333v512c0 47.147-38.187 85.333-85.333 85.333zM810.667 490.667h-426.667v85.333h426.667v-85.333zM640 320h-256v85.333h256v-85.333zM810.667 661.333h-426.667v85.333h426.667v-85.333z" />
<glyph unicode="&#xf0b3;" d="M853.333 874.667h-512c-47.147 0-85.333-38.187-85.333-85.333v-512c0-47.147 38.187-85.333 85.333-85.333h512c47.147 0 85.333 38.187 85.333 85.333v512c0 47.147-38.187 85.333-85.333 85.333zM768 661.333h-128v-234.667c0-58.88-47.787-106.667-106.667-106.667s-106.667 47.787-106.667 106.667 47.787 106.667 106.667 106.667c24.107 0 46.080-8.32 64-21.76v235.093h170.667v-85.333zM170.667 704h-85.333v-597.333c0-47.147 38.187-85.333 85.333-85.333h597.333v85.333h-597.333v597.333z" />
<glyph unicode="&#xf0b4;" d="M981.333 448l-104.107 118.613 14.507 157.227-154.027 34.773-80.64 135.68-145.067-62.293-145.067 62.293-80.64-135.68-154.027-34.773 14.507-157.227-104.107-118.613 104.107-118.613-14.507-157.227 154.027-34.773 80.64-135.68 145.067 62.293 145.067-62.293 80.64 135.68 154.027 34.773-14.507 157.227 104.107 118.613zM554.667 234.667h-85.333v85.333h85.333v-85.333zM554.667 405.333h-85.333v256h85.333v-256z" />
<glyph unicode="&#xf0b5;" d="M512 874.667c-235.733 0-426.667-190.933-426.667-426.667s190.933-426.667 426.667-426.667 426.667 190.933 426.667 426.667-190.933 426.667-426.667 426.667zM512 106.667c-188.587 0-341.333 152.747-341.333 341.333 0 78.933 27.093 151.253 71.893 209.067l478.507-478.507c-57.813-44.8-130.133-71.893-209.067-71.893zM781.44 238.933l-478.507 478.507c57.813 44.8 130.133 71.893 209.067 71.893 188.587 0 341.333-152.747 341.333-341.333 0-78.933-27.093-151.253-71.893-209.067z" />
<glyph unicode="&#xf0b6;" d="M256 149.333h170.667v597.333h-170.667v-597.333zM597.333 746.667v-597.333h170.667v597.333h-170.667z" />
<glyph unicode="&#xf0b7;" d="M512 874.667c-235.733 0-426.667-190.933-426.667-426.667s190.933-426.667 426.667-426.667 426.667 190.933 426.667 426.667-190.933 426.667-426.667 426.667zM469.333 277.333h-85.333v341.333h85.333v-341.333zM640 277.333h-85.333v341.333h85.333v-341.333z" />
<glyph unicode="&#xf0b8;" d="M384 277.333h85.333v341.333h-85.333v-341.333zM512 874.667c-235.733 0-426.667-190.933-426.667-426.667s190.933-426.667 426.667-426.667 426.667 190.933 426.667 426.667-190.933 426.667-426.667 426.667zM512 106.667c-188.16 0-341.333 153.173-341.333 341.333s153.173 341.333 341.333 341.333 341.333-153.173 341.333-341.333-153.173-341.333-341.333-341.333zM554.667 277.333h85.333v341.333h-85.333v-341.333z" />
<glyph unicode="&#xf0b9;" d="M341.333 746.667v-597.333l469.333 298.667z" />
<glyph unicode="&#xf0ba;" d="M512 874.667c-235.733 0-426.667-190.933-426.667-426.667s190.933-426.667 426.667-426.667 426.667 190.933 426.667 426.667-190.933 426.667-426.667 426.667zM426.667 256v384l256-192-256-192z" />
<glyph unicode="&#xf0bb;" d="M426.667 256l256 192-256 192v-384zM512 874.667c-235.733 0-426.667-190.933-426.667-426.667s190.933-426.667 426.667-426.667 426.667 190.933 426.667 426.667-190.933 426.667-426.667 426.667zM512 106.667c-188.16 0-341.333 153.173-341.333 341.333s153.173 341.333 341.333 341.333 341.333-153.173 341.333-341.333-153.173-341.333-341.333-341.333z" />
<glyph unicode="&#xf0bc;" d="M597.333 533.333h-512v-85.333h512v85.333zM597.333 704h-512v-85.333h512v85.333zM768 362.667v170.667h-85.333v-170.667h-170.667v-85.333h170.667v-170.667h85.333v170.667h170.667v85.333h-170.667zM85.333 277.333h341.333v85.333h-341.333v-85.333z" />
<glyph unicode="&#xf0bd;" d="M682.667 704v85.333c0 47.147-38.187 85.333-85.333 85.333h-170.667c-47.147 0-85.333-38.187-85.333-85.333v-85.333h-256v-554.667c0-47.147 38.187-85.333 85.333-85.333h682.667c47.147 0 85.333 38.187 85.333 85.333v554.667h-256zM426.667 789.333h170.667v-85.333h-170.667v85.333zM384 192v384l320-170.667-320-213.333z" />
<glyph unicode="&#xf0be;" d="M170.667 704h-85.333v-597.333c0-47.147 38.187-85.333 85.333-85.333h597.333v85.333h-597.333v597.333zM853.333 874.667h-512c-47.147 0-85.333-38.187-85.333-85.333v-512c0-47.147 38.187-85.333 85.333-85.333h512c47.147 0 85.333 38.187 85.333 85.333v512c0 47.147-38.187 85.333-85.333 85.333zM810.667 490.667h-170.667v-170.667h-85.333v170.667h-170.667v85.333h170.667v170.667h85.333v-170.667h170.667v-85.333z" />
<glyph unicode="&#xf0bf;" d="M640 704h-512v-85.333h512v85.333zM640 533.333h-512v-85.333h512v85.333zM128 277.333h341.333v85.333h-341.333v-85.333zM725.333 704v-349.227c-13.44 4.907-27.52 7.893-42.667 7.893-70.613 0-128-57.387-128-128s57.387-128 128-128 128 57.387 128 128v384h128v85.333h-213.333z" />
<glyph unicode="&#xf0c0;" d="M138.027 697.6c-30.933-12.16-52.693-43.307-52.693-78.933v-512c0-47.147 38.187-85.333 85.333-85.333h682.667c47.147 0 85.333 38.187 85.333 85.333v512c0 47.147-38.187 85.333-85.333 85.333h-498.987l352.64 142.293-29.44 71.040-539.52-219.733zM298.667 106.667c-70.613 0-128 57.387-128 128s57.387 128 128 128 128-57.387 128-128-57.387-128-128-128zM853.333 448h-85.333v85.333h-85.333v-85.333h-512v170.667h682.667v-170.667z" />
<glyph unicode="&#xf0c1;" d="M896 746.667v-597.333h85.333v597.333h-85.333zM725.333 149.333h85.333v597.333h-85.333v-597.333zM597.333 746.667h-512c-23.467 0-42.667-19.2-42.667-42.667v-512c0-23.467 19.2-42.667 42.667-42.667h512c23.467 0 42.667 19.2 42.667 42.667v512c0 23.467-19.2 42.667-42.667 42.667zM341.333 629.333c52.907 0 96-43.093 96-96 0-53.12-43.093-96-96-96s-96 42.88-96 96c0 52.907 43.093 96 96 96zM533.333 234.667h-384v32c0 64 128 96 192 96s192-32 192-96v-32z" />
<glyph unicode="&#xf0c2;" d="M298.667 661.333h426.667v-128l170.667 170.667-170.667 170.667v-128h-512v-256h85.333v170.667zM725.333 234.667h-426.667v128l-170.667-170.667 170.667-170.667v128h512v256h-85.333v-170.667z" />
<glyph unicode="&#xf0c3;" d="M298.667 661.333h426.667v-128l170.667 170.667-170.667 170.667v-128h-512v-256h85.333v170.667zM725.333 234.667h-426.667v128l-170.667-170.667 170.667-170.667v128h512v256h-85.333v-170.667zM554.667 320v256h-42.667l-85.333-42.667v-42.667h64v-170.667h64z" />
<glyph unicode="&#xf0c4;" d="M512 746.667v170.667l-213.333-213.333 213.333-213.333v170.667c141.44 0 256-114.56 256-256s-114.56-256-256-256-256 114.56-256 256h-85.333c0-188.587 152.747-341.333 341.333-341.333s341.333 152.747 341.333 341.333-152.747 341.333-341.333 341.333z" />
<glyph unicode="&#xf0c5;" d="M451.627 568.747l-220.587 220.587-60.373-60.373 220.587-220.587 60.373 60.373zM618.667 789.333l87.253-87.253-535.253-535.040 60.373-60.373 535.253 535.253 87.040-87.253v234.667h-234.667zM632.747 387.627l-60.373-60.373 133.547-133.547-87.253-87.040h234.667v234.667l-87.253-87.253-133.333 133.547z" />
<glyph unicode="&#xf0c6;" d="M256 192l362.667 256-362.667 256v-512zM682.667 704v-512h85.333v512h-85.333z" />
<glyph unicode="&#xf0c7;" d="M256 704h85.333v-512h-85.333zM405.333 448l362.667-256v512z" />
<glyph unicode="&#xf0c8;" d="M336.213 815.36l-54.827 65.28-196.053-164.48 54.827-65.28 196.053 164.48zM938.667 715.947l-196.053 164.48-54.827-65.28 196.053-164.48 54.827 65.28zM511.787 789.333c-212.267 0-383.787-171.947-383.787-384s171.52-384 383.787-384 384.213 171.947 384.213 384-171.947 384-384.213 384zM512 106.667c-164.907 0-298.667 133.76-298.667 298.667s133.76 298.667 298.667 298.667 298.667-133.76 298.667-298.667-133.547-298.667-298.667-298.667zM384 490.667h154.667l-154.667-179.2v-76.8h256v85.333h-154.667l154.667 179.2v76.8h-256v-85.333z" />
<glyph unicode="&#xf0c9;" d="M256 704h512v-512h-512z" />
<glyph unicode="&#xf0ca;" d="M853.333 789.333h-682.667c-47.147 0-85.333-38.187-85.333-85.333v-512c0-47.147 38.187-85.333 85.333-85.333h682.667c47.147 0 85.333 38.187 85.333 85.333v512c0 47.147-38.187 85.333-85.333 85.333zM170.667 448h170.667v-85.333h-170.667v85.333zM597.333 192h-426.667v85.333h426.667v-85.333zM853.333 192h-170.667v85.333h170.667v-85.333zM853.333 362.667h-426.667v85.333h426.667v-85.333z" />
<glyph unicode="&#xf0cb;" d="M853.333 789.333h-682.667c-47.147 0-85.333-38.187-85.333-85.333v-512c0-47.147 38.187-85.333 85.333-85.333h682.667c47.147 0 85.333 38.187 85.333 85.333v512c0 47.147-38.187 85.333-85.333 85.333zM330.88 266.88l-60.373-60.373c-66.347 66.773-99.84 154.027-99.84 241.493s33.493 174.72 100.053 241.28l60.373-60.373c-49.92-49.707-75.093-115.413-75.093-180.907s24.96-131.2 74.88-181.12zM512 277.333c-94.293 0-170.667 76.373-170.667 170.667s76.373 170.667 170.667 170.667 170.667-76.373 170.667-170.667-76.373-170.667-170.667-170.667zM753.28 206.72l-60.373 60.373c50.133 49.707 75.093 115.413 75.093 180.907s-25.173 131.2-74.88 181.12l60.373 60.373c66.347-66.773 99.84-154.027 99.84-241.493s-33.493-174.72-100.053-241.28zM512 533.333c-47.147 0-85.333-38.187-85.333-85.333s38.187-85.333 85.333-85.333 85.333 38.187 85.333 85.333-38.187 85.333-85.333 85.333z" />
<glyph unicode="&#xf0cc;" d="M725.333 512v149.333c0 23.467-19.2 42.667-42.667 42.667h-512c-23.467 0-42.667-19.2-42.667-42.667v-426.667c0-23.467 19.2-42.667 42.667-42.667h512c23.467 0 42.667 19.2 42.667 42.667v149.333l170.667-170.667v469.333l-170.667-170.667z" />
<glyph unicode="&#xf0cd;" d="M896 682.667l-170.667-170.667v149.333c0 23.467-19.2 42.667-42.667 42.667h-263.68l477.013-477.013v455.68zM139.733 874.667l-54.4-54.4 116.267-116.267h-30.933c-23.467 0-42.667-19.2-42.667-42.667v-426.667c0-23.467 19.2-42.667 42.667-42.667h512c8.747 0 16.427 3.2 23.253 7.893l135.893-135.893 54.187 54.4-756.267 756.267z" />
<glyph unicode="&#xf0ce;" d="M170.667 704h-85.333v-597.333c0-47.147 38.187-85.333 85.333-85.333h597.333v85.333h-597.333v597.333zM853.333 874.667h-512c-47.147 0-85.333-38.187-85.333-85.333v-512c0-47.147 38.187-85.333 85.333-85.333h512c47.147 0 85.333 38.187 85.333 85.333v512c0 47.147-38.187 85.333-85.333 85.333zM512 341.333v384l256-192-256-192z" />
<glyph unicode="&#xf0cf;" d="M789.333 448c0 75.307-43.52 140.373-106.667 171.733v-343.68c63.147 31.573 106.667 96.64 106.667 171.947zM213.333 576v-256h170.667l213.333-213.333v682.667l-213.333-213.333h-170.667z" />
<glyph unicode="&#xf0d0;" d="M298.667 576v-256h170.667l213.333-213.333v682.667l-213.333-213.333h-170.667z" />
<glyph unicode="&#xf0d1;" d="M704 448c0 75.307-43.52 140.373-106.667 171.733v-94.293l104.747-104.747c1.28 8.96 1.92 18.133 1.92 27.307zM810.667 448c0-40.107-8.747-77.867-23.040-112.64l64.64-64.64c27.733 53.12 43.733 113.28 43.733 177.28 0 182.613-127.787 335.36-298.667 374.187v-88.107c123.307-36.693 213.333-150.827 213.333-286.080zM182.4 832l-54.4-54.4 201.6-201.6h-201.6v-256h170.667l213.333-213.333v286.933l181.547-181.547c-28.587-21.973-60.8-39.68-96.213-50.347v-88.107c58.667 13.44 112.213 40.32 157.227 77.227l87.040-86.827 54.4 54.4-713.6 713.6zM512 789.333l-89.173-89.173 89.173-89.173v178.347z" />
<glyph unicode="&#xf0d2;" d="M128 576v-256h170.667l213.333-213.333v682.667l-213.333-213.333h-170.667zM704 448c0 75.307-43.52 140.373-106.667 171.733v-343.68c63.147 31.573 106.667 96.64 106.667 171.947zM597.333 822.187v-88.107c123.307-36.693 213.333-150.827 213.333-286.080s-90.027-249.387-213.333-286.080v-88.107c170.88 38.827 298.667 191.36 298.667 374.187s-127.787 335.36-298.667 374.187z" />
<glyph unicode="&#xf0d3;" d="M853.333 789.333h-682.667c-47.147 0-84.907-38.187-84.907-85.333l-0.427-512c0-47.147 38.187-85.333 85.333-85.333h682.667c47.147 0 85.333 38.187 85.333 85.333v512c0 47.147-38.187 85.333-85.333 85.333zM640 192h-469.333v170.667h469.333v-170.667zM640 405.333h-469.333v170.667h469.333v-170.667zM853.333 192h-170.667v384h170.667v-384z" />
<glyph unicode="&#xf0d4;" d="M512 661.333v170.667h-426.667v-768h853.333v597.333h-426.667zM256 149.333h-85.333v85.333h85.333v-85.333zM256 320h-85.333v85.333h85.333v-85.333zM256 490.667h-85.333v85.333h85.333v-85.333zM256 661.333h-85.333v85.333h85.333v-85.333zM426.667 149.333h-85.333v85.333h85.333v-85.333zM426.667 320h-85.333v85.333h85.333v-85.333zM426.667 490.667h-85.333v85.333h85.333v-85.333zM426.667 661.333h-85.333v85.333h85.333v-85.333zM853.333 149.333h-341.333v85.333h85.333v85.333h-85.333v85.333h85.333v85.333h-85.333v85.333h341.333v-426.667zM768 490.667h-85.333v-85.333h85.333v85.333zM768 320h-85.333v-85.333h85.333v85.333z" />
<glyph unicode="&#xf0d5;" d="M282.667 499.413c61.44-120.747 160.213-219.52 281.173-280.96l93.867 94.080c11.733 11.733 28.587 15.147 43.307 10.453 47.787-15.787 99.2-24.32 152.32-24.32 23.68 0 42.667-18.987 42.667-42.667v-149.333c0-23.68-18.987-42.667-42.667-42.667-400.64 0-725.333 324.693-725.333 725.333 0 23.68 19.2 42.667 42.667 42.667h149.333c23.68 0 42.667-18.987 42.667-42.667 0-53.12 8.533-104.533 24.32-152.32 4.693-14.72 1.28-31.573-10.453-43.307l-93.867-94.293z" />
<glyph unicode="&#xf0d6;" d="M512 576c-68.48 0-134.4-10.667-196.267-30.72v-132.48c0-16.853-9.813-31.36-23.893-38.4-41.6-20.907-79.787-47.573-113.707-78.933-7.68-7.467-18.133-12.16-29.867-12.16s-22.4 4.693-30.080 12.587l-105.6 105.6c-7.893 7.893-12.587 18.56-12.587 30.293s4.693 22.4 12.587 30.293c129.92 123.52 305.92 199.253 499.413 199.253s369.493-75.733 499.413-199.253c7.893-7.68 12.587-18.56 12.587-30.293s-4.693-22.4-12.587-30.080l-105.6-105.6c-7.68-7.68-18.347-12.587-30.080-12.587-11.52 0-22.187 4.693-29.867 12.16-33.92 31.36-72.107 58.027-113.707 78.933-14.080 7.040-23.893 21.547-23.893 38.4v132.48c-61.867 19.84-127.787 30.507-196.267 30.507z" />
<glyph unicode="&#xf0d7;" d="M384 746.667v-85.333h280.96l-494.293-494.293 60.373-60.373 494.293 494.293v-280.96h85.333v426.667z" />
<glyph unicode="&#xf0d8;" d="M725.333 88.96l60.373 60.373-145.707 145.707-60.373-60.373 145.707-145.707zM320 618.667h149.333v-238.293l-231.040-231.040 60.373-60.373 256 256v273.707h149.333l-192 192-192-192z" />
<glyph unicode="&#xf0d9;" d="M835.627 661.333l-323.627-323.627-238.293 238.293h195.627v85.333h-341.333v-341.333h85.333v195.627l298.667-298.667 384 384z" />
<glyph unicode="&#xf0da;" d="M853.333 728.96l-60.373 60.373-494.293-494.293v280.96h-85.333v-426.667h426.667v85.333h-280.96z" />
<glyph unicode="&#xf0db;" d="M597.333 789.333l97.92-97.92-122.88-122.667 60.373-60.373 122.667 122.88 97.92-97.92v256zM426.667 789.333h-256v-256l97.92 97.92 200.747-200.96v-323.627h85.333v359.040l-225.92 225.707z" />
<glyph unicode="&#xf0dc;" d="M853.333 874.667h-682.667c-47.147 0-84.907-38.187-84.907-85.333l-0.427-768 170.667 170.667h597.333c47.147 0 85.333 38.187 85.333 85.333v512c0 47.147-38.187 85.333-85.333 85.333zM256 576h512v-85.333h-512v85.333zM597.333 362.667h-341.333v85.333h341.333v-85.333zM768 618.667h-512v85.333h512v-85.333z" />
<glyph unicode="&#xf0dd;" d="M213.333 405.333h597.333v85.333h-597.333v-85.333zM128 234.667h597.333v85.333h-597.333v-85.333zM298.667 661.333v-85.333h597.333v85.333h-597.333z" />
<glyph unicode="&#xf0de;" d="M938.24 789.333c0 47.147-37.76 85.333-84.907 85.333h-682.667c-47.147 0-85.333-38.187-85.333-85.333v-512c0-47.147 38.187-85.333 85.333-85.333h597.333l170.667-170.667-0.427 768zM768 362.667h-512v85.333h512v-85.333zM768 490.667h-512v85.333h512v-85.333zM768 618.667h-512v85.333h512v-85.333z" />
<glyph unicode="&#xf0df;" d="M853.333 960h-682.667v-85.333h682.667v85.333zM170.667-64h682.667v85.333h-682.667v-85.333zM853.333 789.333h-682.667c-47.147 0-85.333-38.187-85.333-85.333v-512c0-47.147 38.187-85.333 85.333-85.333h682.667c47.147 0 85.333 38.187 85.333 85.333v512c0 47.147-38.187 85.333-85.333 85.333zM512 672c52.907 0 96-43.093 96-96 0-53.12-43.093-96-96-96s-96 42.88-96 96c0 52.907 43.093 96 96 96zM725.333 234.667h-426.667v64c0 71.040 142.293 106.667 213.333 106.667s213.333-35.627 213.333-106.667v-64z" />
<glyph unicode="&#xf0e0;" d="M725.333 832h-42.667v-213.333h42.667v213.333zM640 746.667h-85.333v42.667h85.333v42.667h-128v-128h85.333v-42.667h-85.333v-42.667h128v128zM768 832v-213.333h42.667v85.333h85.333v128h-128zM853.333 746.667h-42.667v42.667h42.667v-42.667zM853.333 298.667c-53.12 0-104.32 8.533-152.32 24.32-14.72 4.693-31.573 1.28-43.307-10.453l-93.867-94.080c-120.747 61.44-219.52 160.213-281.173 280.96l93.867 94.080c11.733 11.733 15.147 28.587 10.453 43.307-15.787 48-24.32 99.413-24.32 152.533 0 23.68-18.987 42.667-42.667 42.667h-149.333c-23.68 0-42.667-18.987-42.667-42.667 0-400.64 324.693-725.333 725.333-725.333 23.68 0 42.667 18.987 42.667 42.667v149.333c0 23.68-18.987 42.667-42.667 42.667z" />
</font>
</defs>
</svg>
